<?xml version="1.0" standalone="yes"?>
<svg xmlns="http://www.w3.org/2000/svg" width="256" height="256" viewBox="0 0 2560 2560"><g id="l1JKjx6eUsMLcwdH6u9Gh9a" fill="rgb(255,255,36)" style="transform: none;"><g style="transform: none;"><path id="p1HHW3rwKv" d="M560 2325 c0 -2 34 -128 75 -278 41 -151 75 -282 75 -291 0 -12 10 -16 43 -16 24 0 48 5 54 11 8 8 16 6 30 -8 65 -69 176 -189 222 -241 49 -56 59 -62 93 -62 l38 0 0 85 c0 76 -2 85 -19 85 -13 0 -20 9 -24 30 -5 20 -12 30 -25 30 -12 0 -21 11 -27 33 -8 25 -17 33 -40 37 -24 4 -31 11 -33 32 -2 17 -25 50 -58 85 -30 32 -54 59 -54 60 0 11 -67 93 -76 93 -6 0 -14 17 -17 38 -6 48 -32 116 -54 143 -10 11 -45 47 -78 80 -48 47 -66 59 -92 59 -18 0 -33 -2 -33 -5z"></path><path id="p14eToMZJ8" d="M1969 2221 c-60 -36 -64 -41 -67 -79 -4 -52 30 -82 94 -82 38 0 50 6 89 44 43 42 45 48 45 100 l0 56 -48 0 c-38 0 -62 -8 -113 -39z"></path><path id="p1FM4z5LAN" d="M1090 1991 c0 -14 -6 -21 -20 -21 -29 0 -26 -53 5 -94 14 -18 25 -37 25 -43 0 -5 9 -18 20 -28 11 -10 20 -24 20 -32 0 -7 10 -13 22 -13 33 0 128 23 128 32 0 24 278 49 360 32 80 -17 200 -68 200 -86 0 -4 16 -8 35 -8 24 0 35 5 35 15 0 8 5 15 10 15 6 0 10 9 10 20 0 11 6 20 14 20 16 0 30 68 24 111 -5 35 -68 40 -101 7 -18 -18 -32 -22 -65 -20 -27 2 -42 8 -42 16 0 9 -20 16 -57 21 -32 3 -72 11 -89 17 -36 13 -176 -1 -302 -30 l-84 -19 -21 22 c-12 12 -30 35 -39 51 -13 22 -25 30 -52 32 -31 3 -36 0 -36 -17z"></path><path id="prCqF2qeB" d="M1525 1690 c-82 -7 -124 -15 -160 -30 -11 -5 -35 -14 -52 -22 l-33 -13 3 -90 2 -90 38 -3 c47 -4 77 19 77 59 0 25 6 29 65 48 65 21 155 28 155 12 0 -4 -9 -20 -20 -34 -11 -14 -20 -39 -20 -56 0 -29 2 -31 38 -31 20 0 58 10 84 22 39 19 49 29 54 55 4 19 12 33 20 33 22 0 18 67 -5 88 -33 30 -45 37 -82 50 -38 13 -39 13 -164 2z"></path><path id="pHRuVl4Wl" d="M2018 1651 c-20 -20 -24 -81 -7 -113 29 -53 59 -159 71 -244 l12 -94 37 0 36 0 1 116 c1 134 -7 185 -45 283 -26 67 -29 71 -58 70 -16 0 -38 -8 -47 -18z"></path><path id="pKOu7O5Yj" d="M1841 1496 c-27 -43 -28 -97 -1 -114 11 -6 28 -29 38 -49 21 -41 52 -156 52 -191 0 -19 5 -22 44 -22 44 0 44 0 51 40 6 37 -22 196 -45 255 -5 11 -16 41 -26 68 -16 45 -18 47 -55 47 -32 0 -40 -5 -58 -34z"></path><path id="pqMYJtTUc" d="M1040 1091 c0 -12 -11 -25 -27 -33 -24 -11 -28 -20 -31 -62 -4 -58 4 -66 69 -66 65 0 72 12 64 105 l-7 75 -34 0 c-27 0 -34 -4 -34 -19z"></path><path id="p73QAiwEu" d="M2060 1075 c0 -34 1 -35 40 -35 39 0 40 1 40 35 0 34 -1 35 -40 35 -39 0 -40 -1 -40 -35z"></path><path id="pfM4EEKpP" d="M1890 965 c0 -44 0 -45 34 -45 37 0 46 12 46 61 0 27 -2 29 -40 29 l-40 0 0 -45z"></path><path id="p15ELgQ9w0" d="M394 928 c-169 -177 -174 -183 -174 -231 0 -45 1 -45 38 -52 21 -3 134 1 251 10 163 12 216 13 227 4 22 -18 18 44 -6 91 -19 37 -23 40 -64 40 -43 0 -44 1 -70 53 -67 135 -76 147 -110 147 -26 0 -43 -12 -92 -62z"></path><path id="p12pOpcv5b" d="M2000 940 c0 -39 1 -40 35 -40 34 0 35 1 35 40 0 39 -1 40 -35 40 -34 0 -35 -1 -35 -40z"></path><path id="pajUg6ZfH" d="M1142 913 c3 -36 5 -38 41 -41 l38 -3 -3 38 c-3 36 -5 38 -41 41 l-38 3 3 -38z"></path><path id="pxNVvkrnM" d="M1230 867 c0 -42 26 -67 68 -67 30 0 32 3 32 33 0 42 -26 67 -68 67 -30 0 -32 -3 -32 -33z"></path><path id="pa72boJb3" d="M860 607 c0 -24 6 -50 13 -58 22 -27 96 -69 122 -69 14 0 25 -4 25 -10 0 -5 16 -10 35 -10 28 0 35 4 35 20 0 11 5 20 10 20 6 0 10 16 10 35 0 33 -2 35 -35 35 -19 0 -35 -4 -35 -10 0 -5 -4 -10 -10 -10 -5 0 -10 7 -10 15 0 8 -4 15 -10 15 -5 0 -10 9 -10 19 0 20 -18 31 -51 31 -10 0 -19 5 -19 10 0 6 -16 10 -35 10 -35 0 -35 -1 -35 -43z"></path><path id="poX0i59pP" d="M1365 426 c-63 -15 -91 -26 -93 -37 -2 -9 5 -19 16 -21 10 -3 45 -48 78 -101 32 -53 61 -96 64 -97 3 0 35 57 72 128 56 106 64 129 53 140 -20 17 -86 13 -190 -12z"></path></g></g><g id="l62bqif0d4Ya7JxQS7iIjBe" fill="rgb(255,244,0)" style="transform: none;"><g style="transform: none;"><path id="p155V8z1HD" d="M550 2357 c0 -2 8 -28 17 -58 15 -49 17 -51 22 -27 l6 28 60 -59 c33 -33 68 -69 78 -80 22 -27 48 -95 54 -143 3 -21 11 -38 17 -38 7 0 27 -21 45 -46 25 -37 30 -49 19 -55 -9 -6 -7 -9 9 -9 13 0 39 -20 67 -52 48 -54 54 -68 34 -68 -6 0 -1 -12 13 -26 14 -15 31 -23 41 -20 22 5 47 -32 29 -44 -16 -10 14 -34 33 -27 17 7 31 -23 16 -33 -16 -10 16 -34 35 -26 9 3 15 0 15 -9 0 -8 -4 -15 -9 -15 -6 0 -5 -15 1 -36 11 -40 3 -57 -15 -34 -7 8 -20 21 -29 29 -16 12 -18 11 -18 -18 0 -20 5 -31 14 -31 7 0 16 -9 19 -20 4 -15 14 -20 40 -20 l34 0 7 61 c9 92 8 109 -9 109 -8 0 -15 6 -15 13 0 20 -74 97 -92 97 -12 0 -18 8 -18 23 0 24 -37 67 -58 67 -7 0 -12 9 -12 20 0 15 -7 20 -29 20 -27 0 -30 3 -33 38 -2 27 -9 40 -25 47 -13 5 -23 18 -23 27 0 11 -8 18 -20 18 -17 0 -20 7 -20 49 0 31 -5 51 -12 54 -10 3 -8 10 5 25 13 14 17 32 15 63 -3 43 -3 44 -123 126 -88 60 -129 82 -152 82 -18 1 -33 0 -33 -2z"></path><path id="pbBElDDyx" d="M2020 2284 c-36 -24 -87 -56 -114 -71 l-48 -27 4 -46 c4 -39 12 -53 49 -88 31 -30 39 -42 27 -42 -10 0 -18 -6 -18 -12 0 -7 -9 -24 -20 -38 -11 -14 -20 -33 -20 -42 0 -24 -15 -23 -106 7 -73 24 -194 35 -194 18 0 -5 12 -19 26 -32 21 -20 28 -22 49 -13 17 8 25 8 25 1 0 -6 11 -8 29 -4 24 5 29 2 34 -16 5 -19 11 -21 42 -16 28 5 40 2 52 -13 16 -18 18 -17 55 22 30 32 41 39 51 29 9 -9 9 -16 -1 -32 -7 -11 -10 -24 -7 -29 4 -6 -1 -10 -9 -10 -14 0 -18 -6 -15 -27 1 -16 -44 -23 -65 -10 -43 28 -56 28 -56 2 0 -14 5 -25 11 -25 6 0 17 -7 25 -15 10 -9 34 -15 63 -15 41 0 50 4 69 30 79 106 89 143 52 182 -27 29 -26 58 1 58 53 0 138 85 158 156 12 43 15 123 5 148 -4 11 -19 16 -48 15 -32 0 -56 -10 -106 -45z m80 -80 c0 -28 -79 -114 -105 -114 -23 0 -72 47 -60 59 21 21 130 81 147 81 13 0 18 -8 18 -26z"></path><path id="pL0OPN3q2" d="M607 2148 c28 -104 41 -140 42 -119 1 24 -51 211 -59 211 -5 0 3 -42 17 -92z"></path><path id="po6XwSgwA" d="M651 1995 c0 -11 4 -29 9 -40 l9 -20 0 20 c0 11 -4 29 -9 40 l-9 20 0 -20z"></path><path id="pA9rGEpyc" d="M1063 2003 c-19 -4 -23 -11 -23 -44 0 -26 5 -42 15 -45 8 -4 15 -15 15 -25 0 -10 5 -19 10 -19 6 0 10 -7 10 -15 0 -8 7 -15 15 -15 9 0 15 -9 15 -24 0 -43 27 -59 88 -54 29 3 57 9 60 14 14 20 200 54 296 54 76 0 96 3 96 14 0 8 -12 17 -27 20 -40 8 -193 4 -198 -5 -3 -4 -13 -5 -23 -2 -20 5 -143 -24 -152 -36 -3 -3 -24 -11 -47 -17 -33 -9 -43 -8 -43 1 0 6 -9 20 -20 30 -11 10 -20 23 -20 28 0 6 -11 25 -25 42 l-24 33 35 4 c33 4 61 -11 36 -20 -19 -6 -14 -24 6 -20 26 4 45 -11 33 -26 -8 -9 -4 -16 15 -27 23 -12 27 -11 39 5 8 10 18 15 24 11 6 -3 11 -1 11 6 0 6 8 9 20 6 11 -3 20 -1 20 4 0 14 30 11 30 -3 1 -8 6 -6 14 5 14 19 36 23 36 7 0 -5 5 -10 10 -10 6 0 10 6 10 14 0 7 9 16 20 19 13 3 20 0 20 -9 0 -19 39 -18 46 1 4 8 12 15 20 15 8 0 14 7 14 16 0 15 -10 16 -87 10 -49 -3 -113 -13 -143 -21 -78 -21 -100 -20 -100 6 0 12 -8 23 -18 26 -10 2 -22 14 -27 26 -10 22 -51 31 -102 20z"></path><path id="pZSWFE28J" d="M1690 1830 c0 -16 7 -20 35 -20 39 0 46 14 16 30 -31 16 -51 12 -51 -10z"></path><path id="p5Kzb4lTJ" d="M705 1770 l0 -40 42 0 c24 0 43 5 43 10 0 6 7 10 15 10 9 0 15 9 15 25 0 30 -3 30 -41 8 -28 -17 -30 -17 -45 5 -22 32 -29 27 -29 -18z"></path><path id="pRj7Sydbf" d="M832 1769 c3 -30 7 -34 37 -37 32 -3 33 -3 18 18 -8 12 -25 29 -37 37 -21 15 -21 14 -18 -18z"></path><path id="pNVMKP5Db" d="M1453 1687 c-24 -5 -43 -14 -43 -18 0 -5 -16 -9 -35 -9 -19 0 -35 -4 -35 -10 0 -5 -9 -10 -20 -10 -17 0 -20 -7 -20 -40 0 -22 5 -40 11 -40 6 0 8 9 4 22 -6 16 -4 20 8 15 9 -3 18 1 21 9 4 10 13 13 25 9 12 -4 21 0 25 11 4 11 14 15 31 12 14 -3 25 -1 25 5 0 5 9 7 20 4 11 -3 20 -1 20 4 0 5 16 9 35 9 19 0 35 -4 35 -10 0 -14 23 -12 44 3 11 8 15 19 10 30 -5 13 -18 17 -63 16 -31 -1 -75 -6 -98 -12z"></path><path id="p17J1lNcq6" d="M1992 1688 c-13 -13 -16 -75 -6 -102 3 -9 17 -16 30 -16 17 0 22 4 17 15 -3 9 3 24 13 34 18 17 19 16 36 -21 9 -21 22 -38 28 -38 15 0 12 66 -4 82 -7 8 -17 24 -20 36 -6 17 -15 22 -45 22 -20 0 -42 -5 -49 -12z"></path><path id="p19fx3loy8" d="M1630 1680 c0 -6 7 -13 15 -16 8 -4 15 -12 15 -20 0 -16 16 -19 25 -4 6 10 15 5 58 -35 19 -18 20 -20 4 -23 -15 -3 -21 -14 -18 -34 0 -5 -6 -8 -14 -8 -13 0 -16 -5 -14 -26 0 -8 -67 -44 -83 -44 -7 0 -6 6 4 18 30 34 27 39 -12 20 -36 -18 -40 -24 -40 -59 0 -35 2 -39 26 -39 49 0 103 23 134 57 58 64 80 104 80 147 0 41 -1 42 -47 59 -53 19 -133 23 -133 7z"></path><path id="ph5Zbryih" d="M950 1650 c0 -45 37 -83 76 -78 26 3 26 3 -25 58 l-50 55 -1 -35z"></path><path id="p1Cz04Nr0k" d="M1428 1578 c-44 -15 -58 -24 -58 -39 0 -10 -7 -19 -15 -19 -8 0 -15 -5 -15 -11 0 -6 7 -8 18 -5 13 6 12 2 -5 -16 -18 -17 -25 -20 -35 -10 -9 9 -9 17 2 37 7 14 10 28 5 32 -4 5 -10 2 -12 -4 -3 -7 -13 -13 -24 -13 -15 0 -19 -7 -19 -38 0 -47 14 -62 57 -62 26 0 33 4 33 19 0 10 8 21 18 24 11 2 21 17 25 34 6 29 10 31 81 44 62 10 76 16 76 31 0 24 -55 22 -132 -4z"></path><path id="pnTp4SaHe" d="M1610 1580 c0 -16 7 -20 35 -20 39 0 46 14 16 30 -31 16 -51 12 -51 -10z"></path><path id="p1FiUZkQMJ" d="M1925 1453 c16 -39 17 -53 4 -54 -8 0 -4 -4 9 -9 22 -9 32 -50 12 -50 -18 0 -11 -20 8 -21 10 0 12 -3 5 -6 -19 -7 -16 -33 5 -34 10 0 12 -3 5 -6 -17 -6 -16 -33 1 -33 15 0 23 -32 18 -67 -4 -25 -32 -32 -32 -8 0 8 -6 15 -14 15 -9 0 -15 -18 -19 -55 -6 -57 -34 -145 -50 -156 -5 -3 -7 -21 -5 -40 3 -30 7 -35 36 -39 l32 -5 -25 -27 c-16 -17 -25 -39 -25 -59 l0 -32 47 6 c39 4 54 12 80 42 36 42 113 193 113 222 0 11 8 35 17 54 13 26 18 69 21 182 4 131 3 147 -12 147 -9 0 -16 -6 -16 -14 0 -8 -8 -17 -17 -19 -17 -4 -17 -5 0 -6 21 -1 24 -41 2 -41 -9 0 -16 14 -20 38 -13 80 -45 114 -45 47 0 -19 5 -35 11 -35 7 0 10 -41 7 -127 -3 -127 -3 -129 -45 -215 -44 -91 -67 -122 -32 -43 29 65 36 199 15 295 -9 41 -20 76 -26 78 -5 2 -10 16 -10 32 0 44 -10 60 -37 60 -20 0 -24 -4 -18 -17z"></path><path id="pXrqRHglX" d="M1910 1331 c0 -33 23 -121 32 -121 12 0 10 26 -8 86 -16 56 -24 68 -24 35z"></path><path id="p1GnKYj5qB" d="M1140 1226 c0 -8 -8 -17 -17 -21 -23 -8 -123 -138 -123 -159 0 -9 -4 -16 -10 -16 -5 0 -10 -18 -10 -40 0 -29 4 -40 15 -40 8 0 15 -7 15 -15 0 -11 12 -15 45 -15 l45 0 0 37 c0 35 0 36 -20 18 -27 -24 -67 -14 -65 17 1 13 12 28 26 35 21 11 25 10 32 -10 l9 -22 16 25 c10 13 37 48 61 78 32 40 45 65 49 98 l5 44 -37 0 c-25 0 -36 -5 -36 -14z"></path><path id="pRD8suAF6" d="M2177 1033 c-13 -12 -8 -65 6 -60 6 2 38 13 70 23 78 24 76 44 -6 44 -35 0 -67 -3 -70 -7z"></path><path id="p6dbDz50z" d="M321 865 c-109 -122 -121 -139 -121 -173 0 -55 8 -62 60 -52 25 5 59 14 75 21 l30 12 -30 9 c-16 5 -42 6 -57 4 -21 -4 -28 -1 -28 10 0 12 204 243 229 259 9 5 43 -51 89 -147 23 -50 31 -58 55 -58 37 0 45 25 19 59 -11 15 -39 64 -61 109 l-41 82 -49 0 -49 0 -121 -135z"></path><path id="p1H7JShJrU" d="M850 616 c0 -50 9 -66 36 -66 17 0 24 -6 24 -20 0 -14 7 -20 21 -20 11 0 28 -9 37 -19 24 -28 105 -52 195 -58 l77 -6 0 40 c0 37 -3 41 -30 47 -24 4 -30 11 -30 32 0 26 -1 27 -55 21 -48 -5 -55 -3 -55 12 0 19 -35 31 -86 31 -14 0 -24 6 -24 14 0 18 -22 26 -71 26 -38 0 -39 -1 -39 -34z m104 -22 c9 -3 16 -15 16 -25 0 -10 4 -19 9 -19 5 0 11 -8 14 -19 4 -16 -3 -14 -44 12 -44 27 -47 31 -31 43 21 16 17 15 36 8z"></path><path id="pehCj3hYE" d="M1573 583 c-7 -2 -13 -20 -13 -39 0 -31 3 -34 29 -34 49 0 61 9 61 46 0 32 -2 34 -32 33 -18 0 -39 -3 -45 -6z"></path><path id="pI8BkAnZe" d="M1513 463 c-26 -5 -33 -43 -8 -43 8 0 15 -4 15 -10 0 -21 37 -9 48 15 6 14 16 25 22 25 5 0 10 5 10 10 0 10 -44 11 -87 3z"></path></g></g><g id="l2ct9CbQNtwNd2VzpHyxnQg" fill="rgb(254,230,0)" style="transform: none;"><g style="transform: none;"><path id="pUw9eZQ12" d="M546 2374 c27 -109 113 -406 113 -394 1 8 -17 83 -39 165 -22 83 -40 158 -40 167 0 14 31 -3 121 -63 66 -45 123 -88 126 -95 2 -7 -5 -26 -17 -42 -15 -20 -19 -36 -15 -55 4 -15 11 -27 16 -27 5 0 9 -7 9 -15 0 -23 28 -18 36 7 10 33 34 47 77 48 36 0 37 1 37 35 0 28 -4 35 -20 35 -12 0 -20 7 -20 18 0 9 -8 27 -18 38 -19 25 -334 204 -357 204 -11 0 -14 -6 -9 -26z"></path><path id="pgNSoWL3O" d="M1965 2250 c-87 -56 -164 -99 -172 -96 -9 4 -13 -3 -13 -19 0 -18 5 -25 20 -25 12 0 20 -7 20 -17 0 -10 23 -37 50 -61 43 -37 50 -48 50 -79 0 -33 1 -35 13 -19 13 17 15 17 39 -5 14 -13 23 -30 21 -36 -3 -8 5 -13 21 -13 28 0 46 25 46 62 0 14 21 44 53 78 50 52 55 61 81 159 23 87 25 108 16 137 -10 31 -15 34 -49 34 -31 0 -68 -19 -196 -100z m181 25 c16 -63 -41 -172 -113 -216 -39 -24 -39 -24 -92 24 -59 54 -58 73 8 108 30 16 66 39 80 52 67 62 107 73 117 32z"></path><path id="pwwPUFGbv" d="M1048 2019 c-12 -6 -18 -22 -18 -44 0 -31 3 -35 25 -35 18 0 23 4 19 15 -6 14 10 19 54 18 8 -1 12 9 10 26 -3 22 -8 26 -38 28 -19 2 -43 -2 -52 -8z"></path><path id="p7WCVsHSx" d="M702 1750 c-11 -19 -10 -20 23 -20 24 0 35 5 35 15 0 8 -4 15 -9 15 -5 0 -15 2 -23 5 -7 3 -19 -4 -26 -15z"></path><path id="pS4DU7ZVH" d="M1550 1685 c0 -8 7 -15 15 -15 8 0 15 -5 15 -11 0 -7 8 -9 23 -4 12 4 30 7 40 6 10 0 17 8 17 20 0 16 -7 19 -55 19 -42 0 -55 -3 -55 -15z"></path><path id="pYVwlkhL" d="M1152 1580 c7 -11 16 -20 20 -20 5 0 8 -7 8 -15 0 -8 -3 -15 -8 -15 -4 0 -6 -19 -3 -42 3 -38 2 -41 -13 -29 -14 12 -16 10 -16 -17 0 -36 22 -52 69 -52 l31 0 0 80 c0 69 -3 82 -20 92 -11 7 -20 18 -20 25 0 8 -13 13 -30 13 -28 0 -29 -2 -18 -20z"></path><path id="p13HZyRM0j" d="M1702 1497 c-30 -31 -102 -65 -102 -48 0 3 7 17 16 29 14 21 14 22 -11 22 -35 0 -64 -36 -65 -77 0 -32 1 -33 41 -33 95 0 163 48 157 111 l-3 30 -33 -34z"></path><path id="pFtCqzPSy" d="M1262 1483 l3 -38 58 -3 57 -3 0 37 0 38 -28 -28 c-26 -24 -30 -25 -42 -11 -10 12 -10 18 0 30 11 13 8 15 -19 15 -31 0 -32 -1 -29 -37z"></path><path id="pnkF2G7G9" d="M1230 1315 c0 -8 -8 -15 -18 -15 -20 0 -62 -39 -62 -57 0 -6 -7 -13 -15 -17 -9 -3 -15 -19 -15 -41 0 -33 1 -35 16 -21 20 21 41 21 24 1 -10 -13 -9 -15 12 -15 15 0 32 11 47 30 l22 30 37 -27 c20 -15 39 -30 42 -33 19 -20 64 -40 91 -40 l31 0 -5 48 c-11 103 -31 142 -74 142 -14 0 -23 6 -23 15 0 12 -13 15 -55 15 -42 0 -55 -3 -55 -15z"></path><path id="p8rgkJanq" d="M2062 1121 c-23 -76 -8 -132 18 -66 7 19 17 32 22 29 5 -3 5 -11 1 -17 -16 -26 -13 -47 7 -47 13 0 20 7 20 19 0 11 5 23 10 26 6 3 10 26 10 51 0 33 -4 44 -16 44 -8 0 -13 -4 -9 -9 3 -5 1 -12 -5 -16 -5 -3 -10 1 -10 9 0 9 -8 16 -18 16 -13 0 -22 -12 -30 -39z"></path><path id="pxRJGx2bu" d="M2159 1033 c-5 -15 -9 -40 -7 -57 l3 -30 30 31 c25 25 41 31 88 35 63 5 72 10 64 33 -5 12 -24 15 -87 15 -78 0 -81 -1 -91 -27z"></path><path id="pwyYvJ3S9" d="M1640 1030 c0 -11 -7 -23 -15 -26 -9 -4 -15 -19 -15 -40 l0 -34 53 0 c61 0 77 12 77 55 0 38 -29 65 -70 65 -23 0 -30 -4 -30 -20z"></path><path id="pHjF1hvMR" d="M485 1030 c-41 -8 -82 -47 -245 -233 -56 -63 -60 -71 -60 -117 0 -44 3 -50 21 -50 11 0 29 5 40 10 17 10 18 13 4 26 -8 9 -15 19 -15 24 0 20 243 280 261 280 13 0 31 -23 60 -82 58 -115 77 -139 106 -132 16 4 25 1 29 -10 10 -27 24 -18 24 15 0 18 -26 82 -62 154 -70 138 -65 134 -163 115z"></path><path id="pGbmpTAei" d="M1872 955 c-7 -14 -12 -39 -12 -55 0 -28 3 -30 35 -30 19 0 35 -4 35 -10 0 -5 -5 -10 -10 -10 -6 0 -25 -17 -43 -37 -18 -20 -63 -63 -102 -95 -94 -79 -91 -77 -120 -90 -14 -6 -25 -15 -25 -20 0 -4 -7 -8 -15 -8 -10 0 -15 -11 -15 -35 0 -33 2 -35 35 -35 19 0 35 4 35 9 0 5 14 11 31 15 42 8 148 84 237 170 63 60 72 74 72 105 l0 35 -30 -29 c-40 -38 -49 -26 -15 19 l27 36 -25 0 c-24 0 -25 2 -20 40 6 46 -1 51 -20 14 -9 -17 -17 -23 -21 -15 -4 6 -2 11 3 11 6 0 11 9 11 20 0 29 -34 25 -48 -5z"></path><path id="p1EsMCNfTs" d="M1180 866 c0 -37 12 -46 61 -46 27 0 29 3 27 33 -2 38 -12 47 -55 47 -31 0 -33 -2 -33 -34z"></path><path id="pKREku2EJ" d="M1000 581 c0 -6 10 -11 21 -11 20 0 21 -1 5 -25 -18 -27 -12 -30 28 -15 17 6 26 6 26 0 0 -6 11 -15 25 -20 14 -5 25 -15 25 -21 0 -6 9 -9 19 -6 11 3 22 -1 24 -8 4 -9 -6 -11 -35 -7 -35 4 -40 2 -34 -13 3 -9 6 -19 6 -21 0 -2 41 -4 90 -4 l90 0 0 28 c0 26 4 29 60 41 58 13 60 14 60 46 l0 33 -117 -2 c-65 0 -157 3 -205 8 -65 7 -88 6 -88 -3z"></path><path id="p6m4bHrwq" d="M940 515 c0 -23 3 -25 51 -25 l52 0 -47 25 c-26 14 -49 25 -52 25 -2 0 -4 -11 -4 -25z"></path></g></g><g id="l18FYqpN1rQVezK50VpYWk4" fill="rgb(253,205,5)" style="transform: none;"><g style="transform: none;"><path id="pZmg0zvVB" d="M543 2389 c4 -13 7 -31 7 -39 1 -12 3 -11 11 3 10 17 12 16 38 -5 14 -13 75 -50 135 -82 111 -61 166 -105 166 -134 0 -9 -18 -27 -40 -40 -22 -13 -38 -27 -35 -32 4 -6 2 -10 -3 -10 -5 0 -7 -11 -4 -25 5 -30 38 -34 47 -6 8 27 52 54 70 44 16 -10 95 -112 95 -125 0 -4 11 -8 25 -8 28 0 29 3 15 30 -8 15 -6 21 8 29 13 7 22 7 30 -1 9 -9 12 -8 12 3 0 9 9 24 20 34 12 11 20 31 20 52 0 29 -2 32 -18 22 -14 -9 -66 17 -297 146 -153 87 -286 160 -294 163 -11 4 -13 0 -8 -19z"></path><path id="pi280g8cf" d="M2153 2353 c-39 -5 -43 -18 -9 -27 17 -4 28 -17 36 -42 7 -19 17 -33 23 -31 12 4 38 93 29 101 -5 6 -23 6 -79 -1z"></path><path id="pXMrUi5PB" d="M1838 2167 c-14 -13 -30 -21 -36 -19 -16 5 -15 -41 0 -56 7 -7 25 -12 41 -12 26 0 28 2 16 16 -10 12 -10 22 0 50 16 45 11 50 -21 21z"></path><path id="p9PD6NOqu" d="M2091 2056 c-51 -52 -64 -71 -66 -100 -3 -32 -1 -36 19 -36 17 0 35 17 65 60 23 33 48 60 56 60 20 0 30 21 15 30 -7 4 -10 17 -7 29 9 37 -16 23 -82 -43z"></path><path id="pItvbBe4H" d="M1080 1681 c0 -11 14 -31 30 -44 17 -14 30 -29 30 -32 0 -4 17 -27 38 -52 22 -29 32 -48 25 -50 -7 -2 -10 -10 -8 -16 3 -7 7 -24 9 -39 4 -25 3 -27 -15 -17 -18 9 -20 8 -17 -13 3 -22 7 -23 79 -23 92 0 119 17 119 73 l0 36 -20 -22 c-17 -18 -25 -20 -41 -11 -20 10 -20 11 -3 30 10 11 12 19 6 19 -7 0 -12 6 -12 13 0 16 -62 77 -78 77 -7 0 -12 7 -12 15 0 8 -9 15 -20 15 -14 0 -20 7 -20 24 0 26 -16 36 -61 36 -22 0 -29 -5 -29 -19z"></path><path id="pPMRlliMD" d="M1685 1469 c-19 -24 -71 -49 -103 -49 -12 0 -11 4 4 22 18 20 18 21 1 15 -10 -4 -24 -7 -31 -7 -7 0 -43 -40 -79 -90 -46 -62 -73 -90 -87 -90 -13 0 -20 7 -20 20 0 24 -35 40 -86 40 -48 0 -114 -35 -114 -60 0 -12 -7 -20 -16 -20 -9 0 -18 -9 -21 -20 -3 -11 -9 -20 -14 -20 -5 0 -9 -17 -9 -37 0 -42 -1 -43 74 50 21 27 41 45 44 42 4 -3 2 -9 -4 -13 -6 -4 -27 -31 -47 -59 -33 -48 -35 -53 -17 -53 11 0 20 7 20 15 0 8 9 15 20 15 11 0 24 8 27 18 9 23 29 42 44 42 10 0 10 3 1 12 -21 21 -13 27 37 24 54 -3 85 -21 76 -43 -3 -8 2 -24 10 -36 25 -36 19 -50 -12 -30 -16 10 -30 20 -33 23 -3 3 -13 11 -22 19 -16 12 -18 11 -18 -18 0 -24 4 -31 20 -31 11 0 20 -6 20 -14 0 -23 63 -56 109 -56 38 0 41 -2 41 -28 0 -48 111 -132 174 -132 30 0 34 4 40 31 13 67 7 82 -44 123 -28 22 -50 43 -50 48 0 4 -16 8 -35 8 -24 0 -37 -6 -45 -20 -6 -11 -17 -20 -25 -20 -25 0 -17 49 13 89 58 73 162 222 162 231 0 4 5 10 11 12 6 2 9 19 7 38 l-3 35 -20 -26z m12 -496 c-9 -9 -20 -12 -28 -8 -9 6 -8 11 6 21 23 17 42 6 22 -13z"></path><path id="pEvOW8Hgi" d="M2062 1139 c-24 -103 -4 -136 30 -48 23 61 23 99 0 99 -14 0 -21 -13 -30 -51z"></path><path id="pRbtJfaRf" d="M2129 1178 c-1 -24 -9 -63 -16 -78 -3 -8 -8 -26 -10 -39 -3 -18 -1 -22 12 -17 9 3 19 6 21 6 2 0 4 16 4 35 0 19 5 35 10 35 6 0 10 16 10 35 0 24 -5 35 -15 35 -8 0 -15 -6 -16 -12z"></path><path id="pRAHhCIOL" d="M2197 1122 c-28 -69 -34 -116 -18 -127 5 -3 11 2 13 11 2 13 18 17 85 18 45 1 85 5 89 8 4 4 -21 37 -55 74 -33 37 -58 70 -55 75 3 5 -3 9 -14 9 -14 0 -26 -17 -45 -68z"></path><path id="p17uBtJi9n" d="M512 1108 c3 -7 -73 -96 -169 -198 l-173 -185 0 -47 c0 -40 3 -48 19 -48 14 0 19 10 23 45 7 54 34 95 135 205 79 85 115 110 173 119 33 6 36 4 53 -31 11 -21 23 -38 28 -38 15 0 10 68 -6 84 -8 8 -15 19 -15 25 0 27 -35 81 -53 81 -10 0 -17 -5 -15 -12z"></path><path id="pM1Sihwzx" d="M1079 1006 c9 -11 9 -19 -1 -35 -7 -12 -17 -21 -23 -21 -15 1 -45 26 -45 39 0 6 -4 11 -10 11 -5 0 -10 -16 -10 -35 0 -28 4 -35 19 -35 10 0 21 -6 24 -13 9 -24 233 -137 271 -137 34 0 36 2 36 32 0 39 -43 88 -77 88 -13 0 -31 8 -41 18 -10 9 -27 22 -38 28 -10 6 -28 25 -39 42 -15 23 -28 31 -49 32 -23 0 -26 -2 -17 -14z"></path><path id="phiI4lO6W" d="M1856 934 c-3 -9 -6 -31 -6 -50 0 -32 2 -34 35 -34 24 0 35 5 35 15 0 8 5 15 10 15 6 0 10 17 10 38 -1 33 -2 35 -14 20 -16 -22 -30 -23 -22 -3 4 11 -1 15 -18 15 -13 0 -27 -7 -30 -16z"></path><path id="pxncOWsYd" d="M1595 605 c-49 -24 -102 -47 -117 -51 -24 -5 -28 -3 -28 15 0 24 -6 25 -112 14 -56 -5 -68 -9 -68 -24 0 -13 9 -19 38 -21 36 -3 36 -4 -20 -17 -35 -9 -58 -20 -58 -28 0 -7 7 -13 15 -13 8 0 15 -4 15 -10 0 -5 -7 -10 -15 -10 -8 0 -15 -7 -15 -15 0 -12 13 -15 57 -15 31 0 70 4 87 9 17 5 67 17 111 26 133 28 265 98 265 140 0 12 -6 12 -37 -5 -21 -11 -42 -20 -48 -20 -5 1 3 8 19 17 16 8 39 24 50 34 20 19 20 19 -15 18 -19 0 -74 -20 -124 -44z"></path><path id="pKaYbX9my" d="M1007 586 c-4 -9 9 -16 41 -24 42 -9 75 -6 45 5 -7 3 -13 11 -13 19 0 19 -66 19 -73 0z"></path><path id="p1EwWV6mmV" d="M1024 539 c-3 -5 6 -9 20 -9 31 0 34 6 6 13 -11 3 -23 1 -26 -4z"></path></g></g><g id="l3bMzVD3iHMtxQ11EZ3zzE1" fill="rgb(214,149,100)" style="transform: none;"><g style="transform: none;"><path id="pvKDx6guF" d="M900 1995 c0 -10 -10 -15 -30 -15 -61 0 -50 -16 210 -316 109 -125 168 -184 186 -184 6 0 21 8 33 18 17 14 20 23 15 50 -4 17 -13 32 -20 32 -8 0 -14 8 -14 18 -1 16 -63 102 -230 315 -71 91 -77 96 -112 97 -27 0 -38 -4 -38 -15z m368 -490 c-10 -10 -34 6 -51 34 -27 46 -20 49 20 9 20 -21 34 -40 31 -43z"></path><path id="pVTRMwIeV" d="M1870 1503 c1 -31 3 -35 11 -20 14 24 28 21 35 -9 11 -42 39 -27 39 21 0 40 0 40 -42 43 l-43 3 0 -38z"></path><path id="ppbX49Nmb" d="M1955 1383 c8 -27 15 -51 15 -55 0 -5 7 -8 15 -8 10 0 15 10 15 33 0 56 -10 77 -36 77 -23 0 -23 0 -9 -47z"></path><path id="pc99xUvlV" d="M1890 1325 c0 -28 4 -35 20 -35 22 0 26 20 10 51 -16 30 -30 23 -30 -16z"></path><path id="p116gDmqZj" d="M543 1223 c-7 -2 -13 -20 -13 -39 0 -32 2 -34 33 -34 62 0 77 9 77 46 0 33 -1 34 -42 33 -24 0 -49 -3 -55 -6z"></path><path id="p1EaPyQ33w" d="M1030 1205 c0 -14 -4 -25 -10 -25 -5 0 -10 -18 -10 -40 0 -39 1 -40 34 -40 42 0 46 6 53 75 l6 55 -37 0 c-32 0 -36 -3 -36 -25z"></path><path id="pgSPWSfA8" d="M1262 1118 c-7 -7 -12 -19 -12 -28 0 -8 -10 -20 -22 -25 -13 -6 -24 -20 -26 -32 -2 -13 -9 -23 -16 -23 -7 0 -25 -14 -40 -31 -26 -29 -27 -31 -10 -50 9 -10 24 -18 33 -17 9 2 16 -2 16 -9 0 -20 38 -42 61 -37 15 4 28 -3 43 -22 12 -15 19 -29 17 -31 -3 -3 -42 16 -89 41 -89 49 -97 52 -97 36 0 -5 9 -10 20 -10 11 0 20 -5 20 -11 0 -19 33 -38 63 -39 21 0 33 -9 48 -35 13 -21 32 -38 48 -41 14 -4 51 -22 82 -40 33 -20 70 -34 89 -34 36 0 110 19 125 32 5 4 16 8 25 8 38 0 -154 -104 -213 -115 -21 -4 -37 -13 -37 -21 0 -10 -11 -12 -46 -7 -44 6 -63 -3 -64 -29 0 -7 43 -4 109 7 23 5 32 3 29 -6 -2 -6 -22 -13 -43 -15 -73 -6 -96 -15 -93 -32 2 -11 16 -19 38 -22 32 -5 33 -7 12 -14 -36 -12 -15 -26 39 -26 42 0 49 3 49 19 0 11 8 22 18 25 9 2 -1 3 -23 0 -27 -2 -8 7 60 29 106 36 247 104 288 140 14 12 41 35 61 50 42 33 46 52 11 61 -14 4 -25 13 -25 21 0 10 -11 15 -35 15 -32 0 -35 -2 -35 -30 0 -25 -4 -30 -25 -30 -21 0 -25 5 -25 29 0 20 9 36 25 49 18 14 25 29 25 54 0 41 -27 58 -90 58 -47 0 -100 40 -100 76 0 31 -91 94 -136 94 -17 0 -37 7 -44 15 -15 18 -91 20 -108 3z"></path><path id="p1FseNIn8v" d="M890 1005 c0 -33 2 -35 35 -35 33 0 35 2 35 35 0 33 -2 35 -35 35 -33 0 -35 -2 -35 -35z"></path><path id="pNYUsepdW" d="M770 995 c0 -33 2 -35 35 -35 33 0 35 2 35 35 0 33 -2 35 -35 35 -33 0 -35 -2 -35 -35z"></path><path id="pcb9o46Uv" d="M680 930 c-8 -5 -25 -10 -37 -10 -17 0 -23 -6 -23 -21 0 -39 19 -59 56 -59 52 0 84 25 84 66 0 32 -2 34 -32 34 -18 0 -40 -5 -48 -10z"></path><path id="p5eAbTa1b" d="M1830 860 c0 -39 1 -40 35 -40 35 0 35 1 35 43 0 31 -3 38 -10 27 -6 -10 -10 -11 -10 -2 0 6 -11 12 -25 12 -22 0 -25 -4 -25 -40z"></path><path id="pNLRcFoju" d="M1020 730 c0 -39 1 -40 35 -40 34 0 35 1 35 40 0 39 -1 40 -35 40 -34 0 -35 -1 -35 -40z"></path><path id="plGN0osWY" d="M724 706 c-8 -33 21 -76 52 -76 22 0 24 4 24 50 l0 50 -35 0 c-28 0 -36 -4 -41 -24z"></path><path id="paB41XANm" d="M1735 614 c-31 -25 -177 -94 -232 -110 l-48 -14 55 6 c112 11 140 16 140 25 0 5 9 9 20 9 14 0 20 7 20 23 0 17 10 28 35 40 19 9 35 21 35 27 0 13 -1 13 -25 -6z"></path><path id="p15nNc06zN" d="M1092 565 c-7 -8 -9 -15 -5 -15 4 0 42 -3 83 -5 66 -4 70 -3 38 6 -21 6 -38 15 -38 20 0 15 -64 9 -78 -6z"></path><path id="pmYslgqbJ" d="M1085 522 c9 -10 120 -42 144 -42 6 0 11 9 11 20 0 14 -7 20 -22 20 -13 1 -50 3 -83 6 -41 4 -57 3 -50 -4z"></path><path id="pyfI5lyjL" d="M1188 453 c12 -2 30 -2 40 0 9 3 -1 5 -23 4 -22 0 -30 -2 -17 -4z"></path></g></g><g id="l6lXAxzg6EsIG2zNMMIOSwR" fill="rgb(247,134,57)" style="transform: none;"><g style="transform: none;"><path id="pRpMkkwbl" d="M857 2076 c-14 -13 -29 -36 -33 -50 -13 -53 -17 -47 265 -373 99 -114 159 -173 177 -173 6 0 24 10 39 21 26 22 29 38 11 80 -9 20 53 48 163 74 82 20 186 16 248 -10 45 -19 43 -19 43 10 0 14 -4 25 -10 25 -5 0 -10 7 -10 16 0 12 5 15 23 9 40 -14 127 -18 127 -6 0 6 7 11 15 11 20 0 45 51 45 92 l0 33 -35 -38 -35 -38 -28 19 c-82 58 -173 83 -307 83 -106 0 -226 -20 -307 -52 -27 -10 -55 -19 -62 -19 -7 0 -35 36 -62 80 -26 44 -51 80 -56 80 -11 0 -21 -67 -13 -97 11 -46 44 -73 86 -73 32 0 39 -4 51 -30 11 -27 18 -30 56 -30 24 0 70 6 101 14 31 8 92 16 136 19 66 4 72 3 35 -5 -79 -16 -184 -50 -222 -71 -27 -15 -38 -27 -38 -44 0 -15 -6 -23 -16 -23 -14 0 -14 -3 -3 -16 9 -11 10 -17 1 -23 -16 -10 3 -35 22 -28 9 4 16 2 16 -3 0 -6 -6 -10 -12 -10 -8 0 -5 -7 6 -15 19 -14 19 -15 -5 -15 -18 0 -35 14 -64 53 -42 56 -203 247 -284 337 -46 51 -61 79 -26 50 13 -11 15 -8 15 18 0 17 -6 33 -12 35 -7 3 1 6 19 6 37 1 86 43 76 66 -15 41 -97 48 -136 11z"></path><path id="p19g9rQq4A" d="M2140 2016 c0 -36 0 -36 46 -36 45 0 45 0 42 33 -3 30 -6 32 -45 35 l-43 3 0 -35z"></path><path id="pw5BYI4BV" d="M1965 1643 c-26 -7 -35 -21 -35 -60 0 -28 -3 -33 -25 -33 -14 0 -25 -4 -25 -10 0 -5 -16 -10 -36 -10 -27 0 -37 -5 -41 -20 -3 -11 -9 -20 -14 -20 -5 0 -9 -22 -9 -50 l0 -50 45 0 c32 0 45 4 45 14 0 8 -6 16 -12 18 -9 3 -4 18 15 47 29 43 54 50 49 14 -2 -11 6 -36 18 -55 11 -19 29 -79 41 -134 24 -114 20 -189 -14 -269 -21 -52 -79 -147 -84 -141 -2 2 12 34 30 72 19 38 37 87 41 109 l6 40 -23 -50 c-39 -86 -57 -115 -72 -115 -7 0 -16 -9 -20 -20 -8 -25 -47 -72 -107 -129 -31 -29 -48 -53 -48 -68 0 -13 6 -23 13 -22 28 3 33 -2 29 -31 -3 -24 -14 -36 -44 -51 -22 -11 -37 -23 -34 -26 9 -9 98 47 165 106 76 66 177 190 220 270 70 132 92 315 53 456 -23 86 -83 225 -97 224 -5 -1 -19 -4 -30 -6z m-146 -929 c-14 -17 -35 -18 -45 -3 -9 15 13 28 37 22 15 -4 17 -8 8 -19z"></path><path id="pumdmIaVY" d="M1518 1594 c-28 -8 -21 -31 12 -37 16 -4 38 -16 47 -27 25 -29 58 -25 84 11 16 23 19 33 10 42 -12 12 -123 19 -153 11z"></path><path id="pPL8IlZlx" d="M1060 1505 c0 -33 2 -35 35 -35 42 0 44 8 7 43 -37 35 -42 34 -42 -8z"></path><path id="p9DS8XbCz" d="M2143 1290 c0 -25 2 -35 4 -22 2 12 2 32 0 45 -2 12 -4 2 -4 -23z"></path><path id="pELT6cPzz" d="M1180 1281 c-15 -4 -26 -15 -28 -29 -2 -12 -10 -22 -18 -22 -8 0 -14 -8 -14 -19 0 -10 -9 -21 -20 -24 -11 -3 -20 -12 -20 -21 0 -9 -4 -16 -10 -16 -5 0 -10 -10 -10 -23 0 -13 -5 -28 -11 -34 -6 -6 -9 -18 -7 -28 2 -11 32 21 87 93 46 61 93 115 105 120 20 10 20 11 -4 10 -14 0 -36 -3 -50 -7z"></path><path id="pSqk0EB37" d="M1151 1158 c-44 -57 -81 -111 -81 -120 0 -17 53 -102 71 -113 5 -4 9 5 9 20 0 25 36 91 72 130 10 11 27 31 38 45 l19 25 1 -33 c0 -29 2 -31 18 -21 15 10 25 8 49 -10 23 -17 39 -21 71 -17 27 3 42 1 42 -6 0 -6 15 -24 33 -39 23 -21 29 -31 20 -37 -10 -6 -4 -16 20 -39 44 -42 70 -54 111 -51 30 3 36 7 36 25 0 15 -16 32 -53 57 -67 45 -108 86 -84 86 9 0 21 10 28 22 10 19 12 19 21 5 10 -19 34 -22 43 -6 4 5 4 37 0 70 -7 58 -7 59 -39 59 -18 0 -37 -5 -44 -12 -9 -9 -12 -4 -12 23 l-1 34 -39 -45 c-32 -36 -39 -51 -35 -72 3 -20 0 -28 -10 -28 -14 0 -162 108 -185 135 -7 8 -18 15 -25 15 -7 0 -49 -46 -94 -102z"></path><path id="pSMlYFwLp" d="M2127 1157 c-10 -67 -60 -189 -112 -272 -69 -111 -219 -244 -362 -321 -29 -15 -53 -32 -53 -36 0 -4 16 -8 35 -8 28 0 35 4 35 19 0 19 25 31 68 31 12 0 22 5 22 10 0 6 7 10 15 10 8 0 15 7 15 15 0 8 9 15 20 15 11 0 20 7 20 15 0 8 9 15 20 15 13 0 20 7 20 18 0 10 14 31 31 48 45 42 146 178 174 235 31 61 67 191 63 227 -2 20 -5 15 -11 -21z"></path><path id="p1763NlNS" d="M1328 553 c12 -2 32 -2 45 0 12 2 2 4 -23 4 -25 0 -35 -2 -22 -4z"></path><path id="pENYAObYL" d="M1208 543 c17 -2 47 -2 65 0 17 2 3 4 -33 4 -36 0 -50 -2 -32 -4z"></path><path id="p1xJiBn9s" d="M1340 522 c0 -4 -29 -6 -64 -4 -52 3 -64 1 -69 -12 -10 -25 14 -30 104 -23 88 7 159 25 159 40 0 5 -10 6 -22 2 -45 -14 -88 -17 -88 -6 0 6 -4 11 -10 11 -5 0 -10 -4 -10 -8z"></path><path id="pAjuH7abK" d="M1420 484 c-25 -8 -90 -18 -145 -23 l-100 -8 142 -1 c112 0 143 3 147 14 3 8 12 14 21 14 8 0 15 5 15 10 0 14 -26 12 -80 -6z"></path></g></g><g id="l16oxfy7m8WeQHoqQJpotYH" fill="rgb(252,64,24)" style="transform: none;"><g style="transform: none;"><path id="pp1VcixjG" d="M1111 2058 l-35 -41 30 -25 29 -25 3 24 c2 13 8 28 13 34 11 11 12 75 2 75 -5 0 -23 -19 -42 -42z"></path><path id="pBkA2cAMI" d="M1828 2092 c-24 -3 -28 -8 -28 -34 0 -17 6 -39 14 -47 12 -13 12 -19 1 -34 -12 -17 -15 -17 -71 3 -79 27 -283 28 -398 1 -52 -13 -97 -17 -137 -14 -71 7 -75 -3 -25 -62 l34 -40 93 23 c201 47 319 46 465 -3 45 -16 89 -25 97 -22 17 7 71 82 81 113 13 41 -76 122 -126 116z"></path><path id="p1CTPmAhCZ" d="M947 2059 c-17 -19 -34 -28 -43 -25 -9 3 -12 10 -9 16 8 13 -1 13 -26 0 -28 -15 -24 -40 6 -40 18 0 32 -10 46 -32 12 -18 19 -25 15 -15 -12 37 13 11 118 -123 102 -131 112 -140 143 -140 34 0 34 0 31 43 -3 38 -6 42 -31 45 -16 2 -30 9 -33 17 -3 7 -13 11 -23 8 -24 -6 -60 45 -40 58 11 7 9 9 -6 9 -16 0 -17 2 -6 9 12 7 9 18 -14 58 -23 39 -64 98 -94 135 -3 4 -19 -7 -34 -23z"></path><path id="p2WuPwDOJ" d="M2135 2070 c-11 -4 -39 -35 -63 -69 l-43 -61 30 0 c17 0 34 6 38 13 15 23 52 37 99 37 41 0 45 2 42 22 -2 12 -18 33 -37 45 -37 25 -37 25 -66 13z"></path><path id="pneaneJ9P" d="M843 1763 c-20 -4 -23 -11 -23 -49 0 -36 3 -44 18 -44 10 0 28 -11 40 -25 18 -20 31 -25 74 -26 29 0 47 -3 41 -6 -8 -3 -13 -23 -13 -49 l0 -44 40 0 c40 0 40 0 40 -39 0 -30 8 -47 36 -80 36 -40 37 -41 103 -41 85 0 121 15 121 52 0 25 -2 27 -26 18 -56 -22 -92 -13 -143 35 -26 25 -52 41 -56 37 -5 -4 -5 -2 -1 5 4 7 -40 63 -109 137 -64 69 -117 125 -118 125 -1 -1 -12 -4 -24 -6z"></path><path id="pi6VbaKPz" d="M1230 1633 c1 -34 71 -120 88 -109 17 10 15 32 -5 52 -23 22 -26 51 -7 58 27 10 4 26 -37 26 -36 0 -39 -2 -39 -27z"></path><path id="ppU3IgxnS" d="M1431 1576 c-54 -14 -66 -31 -57 -79 6 -32 11 -37 35 -37 15 0 42 7 60 16 18 9 34 14 37 12 6 -7 -69 -119 -95 -142 -16 -15 -34 -19 -76 -17 -44 2 -55 -1 -55 -13 0 -9 6 -16 13 -16 8 0 39 -18 70 -40 l56 -40 20 21 c11 12 56 72 100 133 44 61 90 123 102 139 21 27 21 27 0 27 -11 0 -24 6 -28 14 -22 36 -96 45 -182 22z"></path><path id="pwkoQ8Sbn" d="M1840 1432 c0 -7 -7 -12 -15 -12 -28 0 -18 -87 18 -160 31 -64 33 -65 75 -68 42 -3 43 -3 36 25 -19 86 -50 160 -80 192 -19 19 -34 29 -34 23z"></path><path id="pLPQWC44I" d="M1503 1208 c-16 -35 -31 -71 -37 -91 -6 -18 -7 -17 -34 2 -18 12 -37 18 -50 14 -17 -4 -22 -1 -22 15 0 22 -43 62 -68 62 -8 0 -25 -12 -38 -27 -23 -27 -23 -28 -5 -31 11 -2 27 -15 36 -28 15 -24 17 -24 29 -8 12 16 23 11 127 -63 63 -44 138 -96 166 -116 65 -46 83 -47 83 -6 0 19 -4 28 -11 24 -6 -4 -42 15 -81 41 -39 27 -79 54 -90 60 -18 11 -16 14 26 57 47 48 53 87 15 87 -11 0 -19 7 -19 15 0 22 -15 18 -27 -7z"></path><path id="peZSWT2OS" d="M2155 1114 c-11 -11 -15 -30 -13 -58 2 -34 7 -42 26 -44 19 -3 26 6 47 53 14 30 25 58 25 60 0 13 -71 3 -85 -11z"></path><path id="pGp9bLqsU" d="M1597 1103 c-13 -12 -7 -20 53 -67 l60 -47 0 34 c0 49 -33 87 -74 87 -18 0 -36 -3 -39 -7z"></path><path id="pT7zTbZU5" d="M900 630 c0 -15 67 -46 138 -64 82 -21 102 -20 102 2 0 26 -121 72 -187 72 -29 0 -53 -4 -53 -10z"></path><path id="pRen9iOnE" d="M870 535 c0 -24 5 -35 15 -35 8 0 15 -8 15 -18 0 -22 43 -41 111 -49 30 -3 59 -10 66 -15 6 -5 56 -10 110 -11 l98 -2 3 26 3 27 -88 4 c-98 5 -178 30 -252 78 -64 40 -81 40 -81 -5z"></path><path id="phaPNesRA" d="M1440 490 c-36 -10 -82 -21 -103 -25 -39 -6 -39 -7 -32 -43 4 -20 8 -39 10 -41 2 -2 56 9 120 24 l117 27 -6 31 c-6 27 -22 48 -36 46 -3 0 -34 -9 -70 -19z"></path></g></g><g id="lTAr1bLTJG40Zoeq25T7vl" fill="rgb(187,101,49)" style="transform: none;"><g style="transform: none;"><path id="p10QVqTEHn" d="M2176 2050 c30 -12 39 -29 19 -36 -9 -4 -21 1 -29 11 -13 18 -14 17 -42 -2 -16 -12 -33 -22 -39 -24 -22 -8 -133 -156 -169 -227 -9 -18 -21 -30 -26 -27 -6 4 -13 -1 -16 -9 -8 -20 -33 -20 -60 -2 -12 8 -30 15 -40 14 -10 0 -48 8 -84 18 -82 23 -276 23 -367 0 -79 -21 -90 -20 -96 4 -8 30 -40 14 -34 -17 4 -19 1 -22 -14 -18 -37 12 -16 -38 43 -101 16 -16 28 -32 28 -36 0 -5 5 -8 11 -8 6 0 8 9 4 21 -5 16 -3 20 6 16 8 -2 28 4 46 15 93 56 278 91 361 69 40 -11 56 -34 30 -44 -7 -2 6 -13 30 -23 23 -10 42 -24 42 -30 0 -13 -20 -44 -160 -239 -104 -145 -159 -239 -147 -252 4 -3 11 6 16 21 7 17 18 26 31 26 l21 0 -21 -30 c-12 -16 -28 -30 -36 -30 -8 0 -14 -9 -14 -20 0 -33 19 -23 77 38 55 57 55 57 49 25 -3 -21 -1 -33 5 -33 8 0 7 -5 -1 -15 -8 -10 -10 -19 -4 -25 14 -14 54 17 69 54 8 17 45 69 82 116 97 120 116 149 110 165 -4 8 -14 11 -26 8 -16 -4 -21 -1 -21 16 0 11 4 21 9 21 5 0 11 10 14 21 5 20 7 20 22 5 16 -15 18 -15 37 9 19 24 22 25 37 11 26 -24 31 -20 31 28 0 57 8 76 31 76 12 0 19 7 19 19 0 10 7 24 16 32 13 10 17 10 24 -1 5 -8 11 -12 13 -10 99 115 115 139 102 150 -21 18 -19 26 21 78 29 38 32 47 19 52 -14 5 -14 8 -1 25 31 41 12 106 -31 104 -15 0 -15 -2 3 -9z m-316 -430 c0 -11 -7 -20 -15 -20 -13 0 -14 4 -5 20 6 11 13 20 15 20 3 0 5 -9 5 -20z"></path><path id="pL3S6u0O4" d="M842 2027 c-25 -27 -29 -42 -7 -33 8 3 15 0 15 -7 1 -7 20 -29 44 -49 l44 -38 -2 40 c-1 22 1 40 6 40 4 0 8 -3 8 -7 1 -13 79 -99 80 -88 0 6 -12 24 -27 41 -16 17 -36 46 -45 66 -10 22 -25 37 -40 40 -13 3 -30 8 -38 12 -10 4 -24 -2 -38 -17z"></path><path id="pNoqND956" d="M1143 1955 c20 -23 33 -31 38 -24 4 7 14 9 22 6 11 -4 13 0 10 14 -3 10 -12 19 -19 19 -8 0 -14 5 -14 10 0 6 -15 10 -34 10 l-34 0 31 -35z"></path><path id="prx79KGpQ" d="M871 1918 c14 -28 60 -78 71 -78 16 0 8 17 -28 58 -39 46 -62 56 -43 20z"></path><path id="p1DjfntLMd" d="M789 1786 c-19 -13 -46 -26 -59 -28 -14 -1 -26 -10 -28 -19 -2 -13 9 -17 50 -22 29 -4 54 -11 56 -17 2 -5 15 -10 28 -10 21 0 24 -5 24 -36 0 -37 20 -63 48 -64 19 0 72 -55 72 -74 0 -9 7 -16 15 -16 8 0 15 -7 15 -15 0 -11 11 -15 40 -15 36 0 40 2 40 26 0 45 -17 64 -50 57 -23 -4 -30 -2 -30 10 0 8 6 17 13 20 20 7 -51 76 -73 70 -12 -3 -27 5 -41 21 -12 14 -31 26 -41 26 -10 0 -18 7 -18 15 0 8 9 15 20 15 28 0 25 11 -13 48 l-33 32 -35 -24z"></path><path id="p3fWAFoMd" d="M1017 1761 c3 -12 14 -28 24 -35 10 -7 16 -16 11 -21 -4 -5 -1 -5 6 -1 14 9 4 32 -26 60 -20 17 -20 17 -15 -3z"></path><path id="pRPE1z23f" d="M1370 1529 c0 -12 -9 -34 -21 -50 l-20 -29 31 0 c18 0 33 6 36 15 4 8 15 15 25 15 11 0 19 7 19 16 0 13 -3 14 -14 5 -11 -9 -15 -7 -20 13 -8 31 -36 43 -36 15z"></path><path id="pvxpYdwBw" d="M1261 1186 c-22 -23 -22 -26 -7 -41 22 -22 20 -42 -4 -48 -13 -3 -20 -14 -20 -29 0 -15 -8 -27 -22 -33 -16 -7 -24 -20 -26 -44 -3 -31 -2 -33 12 -22 14 11 16 11 16 -4 0 -16 2 -16 22 -3 21 14 41 47 20 34 -16 -9 -23 21 -7 34 9 8 15 8 20 0 5 -8 11 -8 21 1 11 9 11 15 3 25 -8 10 -5 21 14 46 l24 33 -22 38 -21 37 -23 -24z"></path><path id="pjHd4rsXi" d="M570 1035 c0 -33 2 -35 35 -35 33 0 35 2 35 35 0 33 -2 35 -35 35 -33 0 -35 -2 -35 -35z"></path><path id="pOViDYQYv" d="M980 1035 c0 -9 -7 -18 -15 -21 -9 -4 -15 -19 -15 -40 0 -34 1 -34 45 -34 44 0 60 12 30 24 -19 7 -19 31 1 61 16 25 16 25 -15 25 -21 0 -31 -5 -31 -15z"></path><path id="p14OSYmTjJ" d="M610 910 c0 -18 110 -230 119 -230 11 0 21 50 21 101 0 33 -4 41 -25 49 -15 6 -25 17 -25 29 0 14 -5 18 -19 14 -10 -3 -22 1 -27 8 -5 9 -2 10 10 6 25 -10 40 2 25 19 -13 16 -79 19 -79 4z"></path><path id="ptn1jGxk0" d="M1693 886 c18 -14 16 -17 -22 -52 -37 -33 -40 -38 -25 -49 23 -16 9 -35 -24 -35 -26 -1 -62 -20 -62 -34 0 -3 23 -6 50 -6 43 0 50 3 50 20 0 13 7 20 19 20 11 0 34 17 51 38 24 28 30 45 28 72 -3 33 -5 35 -43 38 -36 2 -38 1 -22 -12z"></path><path id="pgYpzg8Q2" d="M1280 394 c0 -24 2 -25 33 -19 17 4 35 9 40 12 14 8 -21 33 -47 33 -21 0 -26 -5 -26 -26z"></path></g></g><g id="l59Pz1LiAATuwslfBwTyMYF" fill="rgb(246,23,16)" style="transform: none;"><g style="transform: none;"><path id="p184pRupS" d="M1515 2351 c-3 -10 -16 -22 -29 -25 -35 -9 -263 -245 -278 -287 -4 -11 -10 -10 -27 5 -11 11 -21 25 -21 33 0 28 -26 11 -43 -27 -9 -22 -17 -42 -17 -44 0 -1 13 -17 30 -34 42 -44 121 -52 243 -23 120 29 261 29 342 0 33 -11 64 -25 70 -30 17 -17 35 -9 60 29 27 40 26 61 -3 95 -14 16 -13 17 11 17 15 0 27 4 27 9 0 5 -56 60 -125 123 -206 185 -227 199 -240 159z"></path><path id="pIV2Yn1rK" d="M2160 2060 c0 -5 6 -10 13 -10 7 0 18 -5 25 -12 9 -9 7 -17 -10 -35 l-21 -23 37 0 c52 0 59 25 18 62 -32 28 -62 37 -62 18z"></path><path id="pFASoorrn" d="M907 2023 c-11 -11 -8 -23 6 -23 8 0 28 -18 46 -41 44 -54 49 -44 10 20 -30 48 -47 60 -62 44z"></path><path id="pLjzkH5Qg" d="M1040 1858 c23 -29 80 -104 127 -165 84 -112 111 -136 99 -89 -3 14 -1 26 4 28 6 2 -3 18 -21 36 -17 17 -27 32 -23 32 5 0 -13 14 -41 31 -66 41 -99 73 -136 131 -17 27 -35 48 -40 48 -6 0 9 -24 31 -52z"></path><path id="p19kYWvAcp" d="M812 1698 c3 -39 6 -43 31 -46 16 -2 35 -1 42 2 19 7 6 46 -15 46 -10 0 -22 9 -25 20 -3 11 -13 20 -21 20 -12 0 -14 -10 -12 -42z"></path><path id="p2vvT4mQP" d="M1438 1506 c-16 -8 -28 -11 -28 -5 0 22 -31 5 -76 -40 -27 -27 -52 -47 -57 -44 -5 3 -15 -3 -22 -13 -9 -12 -14 -14 -15 -6 0 9 -5 10 -19 2 -36 -19 -59 -11 -98 35 -48 56 -63 57 -63 5 0 -32 7 -47 41 -82 35 -37 39 -45 30 -66 -6 -12 -11 -38 -11 -57 0 -28 4 -35 20 -35 11 0 27 12 37 26 9 14 34 37 56 51 36 22 46 24 107 18 67 -7 69 -6 104 27 44 41 106 144 106 175 0 20 -5 23 -42 23 -24 0 -55 -7 -70 -14z"></path><path id="pZR6UZOE0" d="M1815 1400 c-32 -34 -31 -65 8 -174 30 -83 42 -96 96 -103 l42 -6 -3 49 c-3 42 -6 49 -28 54 -19 4 -33 22 -57 70 -38 77 -40 90 -13 97 25 7 26 19 1 32 -14 8 -24 4 -46 -19z"></path><path id="pasg6wjXG" d="M1588 1330 c-23 -34 -54 -77 -67 -96 -12 -18 -21 -38 -19 -44 3 -11 74 81 117 153 38 63 16 53 -31 -13z"></path><path id="p1HZrRigux" d="M1558 1193 c-18 -21 -31 -43 -25 -43 2 0 13 14 25 30 25 33 24 41 0 13z"></path><path id="p112gPoJ21" d="M2144 1133 c-9 -32 -19 -82 -22 -110 l-4 -53 30 0 c25 0 32 6 41 31 9 26 8 34 -5 43 -21 16 -9 42 24 54 17 6 32 22 39 41 10 27 9 32 -7 41 -10 6 -32 10 -49 10 -27 0 -31 -4 -47 -57z"></path><path id="p3HRKrjUG" d="M1290 1128 c0 -30 0 -31 20 -13 15 14 17 21 9 32 -19 22 -29 15 -29 -19z"></path><path id="pEvAHMXWn" d="M1616 1128 c-23 -32 -20 -55 5 -54 15 1 32 -14 55 -45 l33 -47 -28 -25 c-15 -13 -34 -26 -42 -29 -9 -3 -2 -12 21 -26 50 -31 60 -28 60 18 0 29 4 40 15 40 20 0 20 81 0 120 -14 27 -71 70 -93 70 -6 0 -18 -10 -26 -22z"></path><path id="p1E7EtHpUV" d="M1400 1085 c0 -3 28 -23 63 -46 l62 -42 -32 34 c-27 29 -93 67 -93 54z"></path><path id="paVb9wPzu" d="M1111 992 c-7 -14 -4 -25 15 -48 16 -18 23 -22 20 -11 -3 10 -6 32 -6 48 0 33 -14 38 -29 11z"></path><path id="pLaf2wl2I" d="M970 937 c0 -23 4 -48 9 -55 13 -21 191 -82 239 -82 59 0 55 23 -9 58 -28 15 -80 44 -116 66 -36 21 -78 42 -94 46 -29 9 -29 8 -29 -33z"></path><path id="p12TJ61E1w" d="M868 643 c-25 -4 -28 -8 -28 -46 0 -44 41 -117 66 -117 8 0 14 -7 14 -15 0 -9 20 -24 46 -35 25 -11 48 -28 51 -38 4 -15 20 -18 149 -19 86 -1 144 2 144 7 0 6 12 10 28 10 21 0 24 2 12 10 -13 9 -12 12 4 25 11 8 29 15 40 15 26 1 56 23 56 41 0 8 -3 10 -8 4 -4 -5 -27 -11 -52 -13 -25 -2 -46 -6 -48 -10 -1 -5 -19 -6 -39 -4 -26 3 -38 0 -45 -12 -11 -20 -74 -22 -85 -2 -13 21 -37 24 -50 7 -11 -15 -12 -15 -18 0 -4 11 -14 15 -26 12 -11 -3 -19 0 -19 6 0 8 -6 9 -17 3 -17 -8 -39 -5 -90 13 -26 8 -28 16 -11 33 9 9 4 20 -25 46 -59 54 -45 73 25 37 21 -10 36 -15 35 -11 -3 14 7 14 46 1 22 -8 34 -17 31 -23 -4 -6 -2 -8 4 -4 6 3 21 2 34 -2 12 -5 35 -12 51 -16 24 -6 27 -3 27 17 0 20 -12 28 -77 55 -77 32 -137 38 -225 25z"></path><path id="piKysaff7" d="M1665 571 c-27 -16 -80 -39 -117 -51 -67 -22 -82 -35 -54 -46 8 -3 16 -15 19 -26 6 -22 1 -23 117 8 87 23 100 35 100 96 0 26 -3 48 -7 48 -5 0 -30 -13 -58 -29z"></path></g></g><g id="l4QEp8Kuoz0s3y6SAJSYlli" fill="rgb(139,61,84)" style="transform: none;"><g style="transform: none;"><path id="p12hEHfMkf" d="M1518 2093 c-2 -10 5 -33 15 -50 15 -26 26 -33 49 -33 17 0 27 4 23 10 -3 6 -12 10 -20 10 -15 0 -47 58 -39 71 3 5 -2 9 -10 9 -8 0 -16 -8 -18 -17z"></path><path id="pcxkWBo7a" d="M848 1623 c-24 -4 -28 -9 -28 -37 0 -17 4 -36 9 -41 5 -6 12 -20 16 -32 5 -17 2 -23 -9 -23 -12 0 -16 -11 -16 -45 0 -38 3 -45 19 -45 13 0 21 -8 23 -22 3 -20 10 -23 61 -26 l59 -3 -3 38 c-2 21 0 43 4 49 3 6 6 42 5 80 0 53 -5 73 -19 86 -19 19 -77 29 -121 21z"></path><path id="peMEod345" d="M1036 1308 c-3 -13 -6 -44 -6 -69 0 -48 -9 -59 -51 -59 -13 0 -19 -7 -20 -22 0 -13 -3 -17 -6 -10 -2 6 -18 12 -34 12 -16 0 -29 5 -29 10 0 6 11 10 23 10 34 0 59 32 64 85 l6 45 -52 0 c-28 0 -51 -4 -51 -10 0 -5 -7 -10 -15 -10 -8 0 -15 -4 -15 -10 0 -5 -11 -10 -25 -10 -22 0 -25 -4 -25 -34 0 -19 5 -36 12 -38 16 -6 2 -38 -17 -38 -10 0 -15 10 -15 30 0 23 -4 30 -20 30 -14 0 -20 7 -20 21 0 23 -15 23 -115 2 -43 -9 -60 -38 -28 -46 17 -4 17 -5 1 -6 -28 -2 -22 -31 6 -31 14 0 31 -7 40 -15 8 -8 21 -15 30 -15 9 0 16 -11 18 -27 3 -26 7 -28 54 -31 46 -3 51 -5 47 -22 -3 -11 -12 -20 -19 -20 -8 0 -14 -6 -14 -13 0 -7 -10 -17 -22 -22 -18 -8 -24 -20 -26 -53 -3 -34 0 -42 10 -37 7 4 2 -3 -12 -14 -14 -11 -28 -21 -31 -21 -4 0 -9 -7 -13 -15 -8 -21 14 -64 29 -59 7 3 16 0 21 -7 4 -8 3 -10 -4 -5 -7 4 -12 3 -12 -3 0 -5 6 -12 13 -14 9 -4 9 -8 -2 -15 -9 -6 -11 -17 -6 -33 12 -37 66 -129 76 -129 5 0 9 18 9 41 0 37 -2 40 -22 34 -17 -6 -20 -4 -15 10 4 9 7 19 7 21 0 3 9 0 20 -6 17 -9 20 -21 20 -78 1 -91 24 -141 83 -175 45 -26 80 -33 111 -21 28 11 17 38 -22 56 -41 19 -108 108 -99 131 10 28 107 20 189 -14 40 -17 79 -36 86 -41 7 -6 47 -9 97 -6 68 4 89 8 104 24 31 34 41 60 41 108 l0 45 -77 38 c-43 20 -94 49 -113 64 -19 14 -64 36 -100 48 -82 27 -83 28 -106 75 -13 29 -15 41 -6 44 7 2 12 12 12 22 0 10 7 20 15 24 8 3 15 17 15 31 0 14 5 25 10 25 6 0 10 7 10 15 0 8 7 15 15 15 8 0 15 9 15 20 0 11 7 20 15 20 12 0 15 16 15 85 l0 85 -34 0 c-26 0 -35 -5 -40 -22z"></path><path id="pvRoo19pK" d="M450 1245 c0 -4 7 -19 15 -35 22 -42 45 -39 45 5 0 32 -2 35 -30 35 -16 0 -30 -2 -30 -5z"></path><path id="pfOiZRhQS" d="M659 889 c16 -6 28 -6 35 1 7 7 -1 10 -24 9 -33 0 -34 -1 -11 -10z"></path><path id="pnJrkDu3W" d="M1030 409 c0 -36 32 -68 70 -69 46 -1 210 35 207 45 -3 9 -73 20 -187 28 -25 2 -55 9 -67 16 -22 11 -23 10 -23 -20z"></path><path id="p56QRC1gI" d="M950 332 l0 -40 38 9 c20 5 41 9 45 9 5 0 7 12 5 28 -3 24 -7 27 -45 30 l-43 3 0 -39z"></path></g></g><g id="l01qGr4bovRgjmL8qNYZMqZ" fill="rgb(118,51,79)" style="transform: none;"><g style="transform: none;"><path id="pJ8UkCN9K" d="M1523 2103 c-4 -10 -11 -21 -17 -25 -8 -5 -7 -8 1 -8 7 0 19 -13 27 -29 11 -20 23 -28 41 -28 14 0 25 4 25 9 0 6 -9 8 -20 5 -18 -5 -26 7 -21 36 0 4 -4 7 -10 7 -7 0 -9 10 -5 25 7 29 -11 35 -21 8z"></path><path id="prCURphf" d="M855 1613 c-68 -15 -85 -25 -85 -49 0 -21 -4 -24 -40 -24 l-40 0 0 -70 c0 -56 -3 -70 -15 -70 -8 0 -15 9 -15 20 0 17 -7 20 -40 20 -39 0 -40 -1 -40 -35 0 -24 5 -35 15 -35 8 0 15 -4 15 -10 0 -5 -16 -10 -35 -10 -33 0 -35 -2 -35 -35 0 -30 3 -35 24 -35 25 0 44 -29 27 -40 -15 -9 -26 -110 -12 -110 6 0 11 -11 11 -25 0 -14 5 -25 10 -25 6 0 10 -7 10 -15 0 -11 12 -15 50 -15 l50 0 0 41 c0 34 3 39 13 30 8 -6 17 -9 21 -6 3 3 2 -1 -4 -7 -17 -20 -11 -28 21 -28 28 0 31 -3 25 -22 -3 -13 -6 -26 -6 -30 0 -5 -7 -8 -15 -8 -9 0 -19 -8 -22 -17 -4 -9 -26 -37 -50 -62 -36 -36 -41 -46 -29 -53 10 -6 26 -3 43 8 28 17 28 16 -2 -10 l-30 -26 24 -20 c14 -12 18 -20 10 -20 -11 -1 -10 -4 2 -13 9 -7 19 -22 23 -35 4 -13 15 -22 27 -22 10 0 19 -4 19 -9 0 -15 -18 -23 -25 -12 -10 17 -34 0 -31 -22 6 -37 18 -67 27 -67 5 0 9 -7 9 -15 0 -17 157 -322 170 -330 5 -3 37 2 72 10 35 9 106 27 158 40 l95 23 -76 1 c-55 1 -80 5 -89 16 -10 12 -10 15 1 15 8 0 -10 14 -40 31 -43 25 -58 29 -76 21 -34 -16 -107 34 -129 87 -19 49 -21 98 -3 104 8 3 2 23 -21 68 -18 35 -32 74 -32 86 0 12 -5 25 -10 28 -6 3 -17 20 -26 36 -12 24 -13 34 -3 45 8 10 9 17 0 28 -9 10 -7 16 5 27 13 11 15 11 14 -2 -4 -26 0 -40 10 -34 15 9 32 -43 32 -97 0 -27 4 -48 10 -48 5 0 6 -4 3 -10 -3 -5 1 -10 10 -10 12 0 15 5 10 18 -11 27 -15 84 -8 121 l6 34 17 -23 18 -23 11 21 c6 12 8 22 3 22 -5 0 -6 14 -4 31 5 31 5 31 -34 25 -22 -3 -45 -2 -53 3 -9 5 7 10 45 14 76 7 89 10 108 26 21 17 21 4 0 -16 -8 -9 -13 -22 -10 -29 3 -8 1 -14 -3 -14 -5 0 -12 -7 -15 -16 -3 -9 -2 -12 5 -9 6 4 17 -1 24 -11 13 -17 14 -16 15 17 0 30 7 42 35 65 19 15 35 33 35 40 0 6 7 14 15 18 8 3 15 15 15 26 0 11 5 20 10 20 6 0 10 25 10 55 0 30 -4 55 -9 55 -6 0 -8 -9 -6 -20 2 -11 0 -22 -6 -25 -5 -4 -9 5 -9 19 0 14 -4 26 -10 26 -5 0 -10 7 -10 15 0 8 -7 15 -15 15 -8 0 -15 7 -15 15 0 9 -7 18 -15 21 -19 8 -20 24 -1 24 9 0 15 20 20 63 8 77 -1 127 -22 127 -11 0 -13 8 -8 38 4 30 2 41 -14 55 -19 16 -69 21 -115 10z m35 -53 c0 -5 -5 -12 -12 -16 -7 -5 -8 -3 -4 5 5 7 0 19 -10 27 -18 14 -18 14 4 4 12 -6 22 -15 22 -20z m30 -18 c0 -4 -9 -13 -20 -20 -23 -14 -26 -8 -7 13 13 16 27 19 27 7z m6 -43 c-15 -12 -30 -18 -33 -15 -8 8 27 35 46 36 7 0 2 -10 -13 -21z m21 -39 c-18 -26 -97 -38 -97 -15 0 9 11 13 31 13 17 -1 34 3 37 9 7 11 35 22 41 17 1 -1 -4 -13 -12 -24z m-35 -66 c-7 -12 -11 -13 -17 -4 -4 7 -2 16 6 21 18 11 23 4 11 -17z m22 -129 c-14 -11 -15 -14 -4 -15 11 0 9 -5 -7 -21 -12 -13 -28 -19 -37 -16 -18 7 -22 27 -6 27 6 0 10 -5 10 -11 0 -8 4 -8 14 0 8 7 12 21 9 31 -4 16 0 20 18 20 22 0 22 0 3 -15z m-294 -65 c-8 -5 -26 -9 -40 -9 l-25 1 25 8 c14 4 32 8 40 9 13 1 13 0 0 -9z m91 -13 c21 6 23 5 10 -10 -17 -22 -61 -23 -61 -1 0 9 -5 12 -12 8 -7 -4 -8 -3 -4 4 5 8 13 9 25 3 10 -6 29 -7 42 -4z m289 -57 c0 -4 -7 -10 -15 -14 -10 -4 -15 1 -15 14 0 13 5 18 15 14 8 -4 15 -10 15 -14z m-228 -22 c-6 -6 -15 -8 -19 -4 -4 4 -1 11 7 16 19 12 27 3 12 -12z m153 -43 c-2 -26 -5 -30 -29 -27 -16 2 -25 -1 -22 -6 7 -11 -16 -22 -44 -22 -26 0 -33 15 -16 32 8 8 15 23 18 34 2 12 13 20 31 22 16 2 27 9 27 18 0 12 4 11 18 -3 11 -11 18 -30 17 -48z m53 13 c-5 -15 -48 -24 -48 -10 0 6 10 8 22 4 14 -3 19 -2 14 6 -4 7 -2 12 4 12 7 0 10 -6 8 -12z m-232 -415 c-11 -11 -17 4 -9 23 7 18 8 18 11 1 2 -10 1 -21 -2 -24z m236 -338 c0 -5 -5 -11 -11 -13 -6 -2 -11 4 -11 13 0 9 5 15 11 13 6 -2 11 -8 11 -13z"></path><path id="p16Ezy4saZ" d="M2230 1485 c0 -33 2 -35 35 -35 33 0 35 2 35 35 0 33 -2 35 -35 35 -33 0 -35 -2 -35 -35z"></path><path id="p19jFlsXKR" d="M450 1240 c6 -11 15 -20 20 -20 5 0 7 -7 4 -15 -4 -10 0 -15 15 -15 17 0 21 6 21 35 0 33 -2 35 -35 35 -33 0 -35 -2 -25 -20z"></path><path id="pK6gPyNVE" d="M944 857 c4 -16 2 -27 -6 -29 -8 -3 -5 -15 11 -39 l22 -34 -6 48 c-4 30 -2 47 4 47 6 0 11 -6 11 -14 0 -8 4 -17 9 -20 5 -4 6 5 2 21 -4 16 -12 28 -17 28 -5 0 -15 4 -23 9 -11 7 -13 4 -7 -17z"></path><path id="pjrq3E0KC" d="M867 783 c-17 -16 -6 -33 17 -27 21 5 24 3 19 -14 -3 -13 3 -25 18 -36 26 -18 49 -21 49 -6 0 6 -6 10 -14 10 -7 0 -19 15 -27 33 -17 42 -43 59 -62 40z"></path><path id="paldIILYv" d="M1002 761 c-12 -10 -22 -24 -22 -30 0 -22 29 -43 50 -36 22 7 26 35 8 53 -9 9 -9 12 1 12 7 0 9 5 6 10 -9 14 -19 12 -43 -9z"></path><path id="p4Y5y8A26" d="M1249 745 c42 -19 47 -19 31 0 -7 8 -24 15 -39 15 -25 -1 -25 -1 8 -15z"></path><path id="p1A26eAqRz" d="M1193 724 c-7 -3 -22 -21 -33 -39 -13 -22 -26 -32 -36 -28 -7 3 -22 2 -31 -2 -15 -5 -12 -9 16 -21 60 -25 121 -16 146 23 15 22 15 26 0 49 -15 23 -35 29 -62 18z"></path><path id="p1CJKkdkzT" d="M1896 638 c-3 -13 -6 -38 -6 -55 0 -31 2 -33 33 -33 38 0 57 27 57 80 0 28 -2 30 -39 30 -32 0 -40 -4 -45 -22z"></path><path id="pi95s9ULk" d="M1638 488 c-16 -5 -28 -16 -28 -23 0 -10 9 -11 40 -3 22 6 40 16 40 24 0 16 -14 17 -52 2z"></path></g></g><g id="lEmNkW5P19TVA35Ads44xO" fill="rgb(161,34,33)" style="transform: none;"><g style="transform: none;"><path id="pGfak2a7v" d="M1459 2339 c-24 -17 -58 -45 -75 -63 -17 -17 -67 -63 -111 -103 -59 -53 -83 -69 -91 -61 -17 17 -52 -19 -52 -53 0 -20 10 -35 33 -53 45 -35 73 -34 80 2 6 28 154 196 227 257 33 27 48 34 68 29 19 -4 23 -3 13 4 -10 7 -11 14 -2 31 27 50 -26 55 -90 10z"></path><path id="pgZr7H3Ne" d="M1555 2201 c-14 -24 -15 -61 -1 -61 8 0 16 7 20 15 4 10 14 13 36 9 19 -4 30 -2 30 5 0 6 -5 11 -11 11 -5 0 -7 5 -4 10 3 6 -3 10 -14 10 -10 0 -26 3 -34 6 -8 3 -18 0 -22 -5z"></path><path id="p1jM1e8M0" d="M1520 2096 c0 -8 -8 -16 -17 -18 -16 -3 -15 -5 2 -9 15 -5 24 0 32 17 9 19 8 24 -3 24 -8 0 -14 -6 -14 -14z"></path><path id="p198e2rpP0" d="M880 2014 l-35 -13 40 0 c33 -1 45 -7 78 -43 l38 -43 -34 54 c-19 30 -38 56 -43 57 -5 1 -25 -4 -44 -12z"></path><path id="pKwtvDQK7" d="M1575 2020 c3 -5 21 -10 38 -9 31 1 31 1 7 9 -36 11 -52 11 -45 0z"></path><path id="pGCykjzTE" d="M2199 2007 c-29 -24 -128 -146 -199 -244 -25 -34 -52 -62 -60 -62 -10 0 -11 2 -2 6 6 2 12 10 12 17 0 6 10 20 22 31 15 12 18 20 10 23 -7 2 -19 -2 -27 -8 -8 -7 -22 -10 -30 -6 -10 3 -17 -3 -21 -20 -4 -15 -12 -23 -19 -20 -21 8 -48 -29 -40 -55 6 -18 4 -21 -10 -15 -27 10 -51 -28 -47 -75 l4 -40 27 17 c24 16 25 16 12 1 -7 -9 -11 -17 -7 -17 6 0 -50 -74 -87 -115 -32 -36 -216 -280 -217 -287 0 -5 6 -8 14 -8 19 0 46 31 254 297 23 30 40 59 37 63 -3 5 7 17 22 27 33 21 39 28 98 114 25 36 58 77 73 91 15 14 58 59 95 101 38 43 74 77 80 77 7 0 22 15 35 33 23 34 29 67 13 67 -5 0 -11 7 -13 15 -2 12 -8 11 -29 -8z"></path><path id="pVWw7mGb5" d="M2088 1957 c-24 -29 -51 -64 -61 -77 -11 -15 -16 -18 -13 -8 3 10 0 20 -6 24 -7 5 -9 -2 -5 -22 3 -19 -1 -37 -15 -56 l-19 -28 23 9 c13 5 22 15 20 24 -1 8 7 17 18 20 11 3 23 13 27 24 4 10 17 29 30 43 13 14 26 33 29 43 3 9 10 17 15 17 5 0 9 6 9 14 0 8 6 17 13 19 7 3 5 6 -5 6 -9 1 -36 -23 -60 -52z"></path><path id="pt8tKTcsl" d="M1137 1965 c10 -13 22 -25 27 -25 5 0 -1 11 -14 25 -30 32 -36 32 -13 0z"></path><path id="pebddZtnv" d="M2094 1753 c-76 -92 -80 -97 -66 -89 8 5 19 1 27 -10 13 -18 14 -18 15 -1 0 9 5 17 10 17 6 0 10 15 10 34 0 19 4 37 10 41 12 7 53 65 46 65 -2 0 -26 -26 -52 -57z"></path><path id="pWuRwhgGr" d="M751 1761 c-8 -5 -19 -7 -26 -5 -11 5 -42 -23 -34 -29 16 -13 81 -37 97 -37 16 0 22 -9 27 -39 6 -37 9 -40 48 -46 23 -4 51 -15 61 -24 11 -9 16 -10 12 -4 -5 9 -2 11 8 7 12 -5 13 -11 6 -24 -12 -22 -3 -50 16 -50 8 0 14 -7 14 -15 0 -8 16 -30 35 -49 31 -31 35 -42 36 -88 1 -29 0 -57 -1 -63 -1 -5 -6 -34 -12 -65 -5 -30 -14 -59 -19 -64 -14 -15 -11 -26 6 -26 8 0 15 5 15 10 0 6 5 10 10 10 17 0 11 -16 -15 -44 -14 -15 -25 -30 -25 -34 0 -13 -38 -41 -46 -34 -4 4 -4 1 0 -6 4 -6 0 -19 -8 -28 -22 -22 -13 -70 19 -104 15 -15 57 -43 94 -61 36 -18 80 -43 98 -56 45 -35 204 -113 228 -113 77 1 85 39 15 74 -25 13 -73 38 -106 55 -34 17 -69 29 -77 25 -18 -6 -193 53 -213 73 -16 17 -19 43 -4 43 6 0 10 5 10 10 0 6 -10 10 -22 10 -21 1 -21 2 -5 11 9 5 17 16 17 24 0 7 4 15 8 17 20 8 161 208 147 208 -21 0 -19 12 10 54 32 47 31 52 -4 71 -34 17 -80 73 -79 95 3 40 -3 50 -27 50 -16 0 -25 6 -25 15 0 8 -7 15 -15 15 -8 0 -15 7 -15 15 0 22 -36 59 -49 51 -7 -4 -8 -1 -5 8 4 12 0 16 -15 16 -12 0 -24 7 -27 15 -4 8 -10 13 -14 10 -4 -3 -8 1 -7 8 1 40 -3 48 -22 38 -22 -12 -31 -5 -31 25 0 17 -7 23 -34 28 -19 4 -36 11 -38 16 -2 5 -9 6 -17 1z m326 -516 c-2 -30 -8 -54 -13 -53 -5 2 -8 12 -6 23 12 97 24 116 19 30z"></path><path id="pauIHchC8" d="M1147 1718 c19 -25 87 -113 95 -123 4 -5 7 3 6 18 -1 14 -8 29 -16 32 -7 3 -11 9 -8 14 3 5 -1 12 -10 15 -9 4 -14 9 -10 13 3 4 -6 15 -21 25 -32 21 -50 24 -36 6z"></path><path id="ppC21PNI5" d="M2095 1600 c-7 -12 21 -104 41 -135 28 -44 39 -325 13 -325 -5 0 -9 -7 -9 -15 0 -7 -6 -18 -14 -22 -7 -4 -24 -43 -36 -85 -13 -43 -27 -78 -31 -78 -4 0 -28 -30 -52 -67 -50 -77 -152 -178 -244 -243 -51 -36 -63 -49 -63 -71 0 -18 -10 -36 -30 -52 -36 -31 -37 -37 -7 -37 48 0 123 30 152 61 17 17 49 40 73 51 23 11 42 26 42 34 0 8 4 14 10 14 5 0 7 -7 3 -16 -5 -12 1 -15 28 -12 32 3 34 5 37 46 2 26 9 45 18 49 8 3 14 13 14 23 0 9 14 35 31 56 18 22 43 64 56 94 13 30 33 72 43 93 l20 37 -21 0 c-23 0 -23 2 7 105 12 45 17 50 42 50 15 0 29 5 31 10 2 6 21 52 43 102 43 104 48 148 19 156 -10 2 -20 16 -23 31 -4 22 -2 26 18 26 21 0 24 5 24 40 0 39 -1 40 -36 40 -36 0 -36 0 -32 -40 2 -22 0 -40 -4 -40 -5 0 -8 16 -8 36 0 27 -5 37 -20 41 -11 3 -20 10 -20 15 0 31 -98 55 -115 28z"></path><path id="pqcSRMQfV" d="M1353 1480 c-30 -38 -37 -56 -23 -65 15 -9 65 41 75 73 10 33 -24 28 -52 -8z"></path><path id="pxbgPAtHX" d="M1423 1459 c-15 -17 -43 -46 -60 -63 -18 -18 -33 -38 -33 -44 0 -16 48 -34 71 -27 19 6 99 130 99 153 0 24 -49 12 -77 -19z"></path><path id="puJXkX3mq" d="M1793 1373 c-82 -97 -141 -175 -167 -226 -25 -46 -36 -81 -15 -44 10 17 12 17 41 0 33 -19 68 -68 68 -94 0 -9 -9 -24 -21 -35 -13 -12 -18 -25 -15 -40 4 -13 1 -26 -5 -29 -6 -4 2 -15 21 -26 l31 -19 -27 -48 c-15 -26 -33 -54 -41 -63 -24 -28 -247 -129 -296 -132 -18 -2 -42 -11 -53 -21 -10 -9 -30 -26 -44 -36 l-25 -19 65 5 c131 12 244 54 360 135 151 104 273 277 286 408 7 58 6 58 -22 65 -34 9 -64 33 -64 53 0 8 -12 44 -26 79 -25 62 -25 66 -8 85 9 10 13 19 8 19 -5 0 -2 5 6 10 11 7 12 12 4 20 -8 8 -25 -5 -61 -47z"></path><path id="pC3KsSHwp" d="M1238 1163 c-16 -18 -19 -27 -10 -30 6 -3 12 -20 12 -39 0 -45 21 -45 56 1 25 33 27 65 4 65 -6 0 -9 4 -6 9 3 5 -3 11 -13 14 -13 3 -28 -4 -43 -20z"></path><path id="pN1P34a3k" d="M521 1083 c0 -5 27 -60 59 -123 36 -69 59 -106 59 -92 1 13 7 22 16 22 8 0 15 6 15 14 0 7 -7 19 -15 26 -8 7 -15 25 -15 41 0 19 -5 29 -15 29 -14 0 -20 18 -16 48 1 8 -7 16 -18 19 -12 3 -21 9 -21 14 0 5 -11 9 -25 9 -14 0 -25 -3 -24 -7z"></path><path id="plTrx9TQP" d="M1138 1029 c-33 -46 -34 -59 -10 -89 l18 -23 32 34 c27 29 30 36 17 45 -8 6 -15 25 -15 43 0 41 -9 39 -42 -10z"></path><path id="p4H4ExCAI" d="M1560 455 c-48 -26 -38 -33 17 -13 18 7 33 18 33 25 0 16 4 17 -50 -12z"></path><path id="p9kYGsoPV" d="M1027 434 c3 -9 -2 -14 -16 -14 -14 0 -19 -5 -14 -16 4 -10 11 -13 22 -8 9 4 31 7 50 7 18 -1 31 -1 30 1 -2 1 -21 12 -41 24 -26 15 -35 17 -31 6z"></path></g></g><g id="l10xSYO6uJ7X8S1vChWUeTI" fill="rgb(142,35,36)" style="transform: none;"><g style="transform: none;"><path id="p1F2cfCDH6" d="M1873 1703 c-14 -5 -18 -73 -5 -73 5 0 18 11 31 23 32 35 15 67 -26 50z"></path><path id="pFElBNKZ1" d="M810 1630 c0 -38 4 -52 17 -57 9 -4 18 -2 20 4 2 5 15 8 28 5 16 -3 25 0 25 8 0 9 6 8 19 -4 18 -16 18 -16 13 10 -3 15 -13 29 -23 31 -11 3 -19 10 -19 15 0 6 -9 8 -20 5 -15 -4 -20 0 -20 14 0 12 -7 19 -20 19 -17 0 -20 -7 -20 -50z"></path><path id="pZCztBTV3" d="M2133 1603 c-24 -2 -43 -8 -43 -12 0 -4 9 -34 21 -67 12 -34 23 -98 26 -151 5 -81 8 -93 24 -93 38 0 37 182 -2 221 -30 30 -42 68 -24 75 15 6 45 -17 45 -34 0 -5 9 -12 20 -15 15 -4 20 -14 20 -40 0 -27 5 -36 21 -40 16 -4 20 -11 16 -26 -4 -16 1 -23 19 -27 28 -7 29 -17 9 -74 -18 -51 -18 -50 -4 -50 12 0 59 102 59 129 0 10 -7 21 -15 25 -8 3 -15 14 -15 25 0 10 7 21 15 25 10 4 15 20 15 51 0 45 0 45 -34 45 -26 0 -35 -5 -41 -22 -7 -20 -9 -17 -14 17 -6 38 -8 40 -41 41 -19 1 -54 -1 -77 -3z"></path><path id="p10jTPM5xF" d="M946 1555 c-3 -9 -3 -21 0 -27 3 -5 -3 -16 -15 -24 -29 -21 -27 -36 4 -24 27 10 33 2 13 -18 -9 -9 -8 -12 4 -12 9 0 19 8 21 18 4 14 5 15 6 1 0 -9 12 -20 26 -23 14 -4 25 -11 25 -16 0 -6 14 -10 30 -10 38 0 38 6 -2 44 -18 17 -32 34 -30 38 1 5 -2 8 -8 8 -5 0 -10 7 -10 15 0 8 -5 15 -12 15 -6 0 -19 7 -28 15 -16 14 -18 14 -24 0z"></path><path id="paauhGID0" d="M2360 1535 c0 -42 21 -47 38 -10 17 37 15 45 -13 45 -22 0 -25 -4 -25 -35z"></path><path id="p1CvSJcDCL" d="M868 1536 c-10 -7 -18 -16 -18 -20 0 -11 21 -6 36 8 26 27 13 36 -18 12z"></path><path id="p1FmCTROHw" d="M895 1520 c-3 -5 1 -10 9 -10 8 0 18 5 21 10 3 6 -1 10 -9 10 -8 0 -18 -4 -21 -10z"></path><path id="pNaKY4rSq" d="M651 1388 c0 -24 3 -37 6 -30 7 17 49 15 79 -4 29 -19 42 -13 19 9 -8 9 -15 27 -15 41 0 24 -3 26 -45 26 l-45 0 1 -42z"></path><path id="pQGwYpIrE" d="M770 1387 c0 -8 7 -17 15 -21 8 -3 15 -3 15 0 0 3 -7 12 -15 20 -13 13 -15 13 -15 1z"></path><path id="p14m6U7GmR" d="M1046 1384 c-8 -21 -7 -93 1 -124 6 -24 7 -23 19 10 9 25 13 29 14 15 2 -14 4 -11 9 10 4 17 5 35 2 40 -6 10 -7 16 -9 48 -2 21 -28 23 -36 1z"></path><path id="p15rxJhwUQ" d="M1732 1298 c-7 -7 -12 -23 -12 -37 0 -24 0 -24 21 -5 11 10 25 27 30 36 8 14 6 18 -9 18 -10 0 -23 -5 -30 -12z"></path><path id="pBGHVTp51" d="M1250 1110 c0 -46 19 -54 44 -18 12 17 13 24 3 30 -9 6 -9 10 3 18 11 7 7 10 -17 10 -32 0 -33 -2 -33 -40z"></path><path id="p71hR1Xfu" d="M1835 1106 c-21 -32 -30 -91 -16 -100 14 -9 83 54 77 70 -3 7 4 14 15 17 10 3 19 12 19 21 0 12 -10 16 -40 16 -31 0 -43 -5 -55 -24z"></path><path id="pWbCVig5u" d="M512 1103 c23 -49 34 -62 52 -68 19 -6 19 -7 3 -13 -16 -7 -16 -9 -2 -30 9 -12 22 -22 28 -22 7 0 14 -12 15 -27 3 -34 25 -58 46 -50 12 5 16 20 16 57 0 41 -3 50 -18 50 -14 0 -17 7 -14 40 l4 40 -41 0 c-30 0 -41 4 -41 15 0 9 -10 15 -26 15 -14 0 -24 -3 -22 -7z"></path><path id="pzHUKVDkC" d="M1158 1018 c-45 -56 11 -81 57 -26 33 39 32 48 -7 48 -22 0 -39 -8 -50 -22z"></path><path id="pkZLT0W9i" d="M940 961 c0 -6 11 -23 25 -38 l26 -28 -22 38 c-21 37 -29 45 -29 28z"></path><path id="prgdp2qlF" d="M1718 867 c10 -11 -19 -57 -72 -114 -2 -2 -38 -12 -81 -23 l-78 -20 -33 21 c-27 16 -33 17 -28 5 4 -11 0 -16 -12 -17 -26 -2 -20 -4 -114 34 -47 19 -98 38 -115 42 l-30 7 25 -19 c14 -10 60 -36 103 -56 45 -23 77 -44 77 -53 0 -19 -19 -56 -34 -66 -16 -12 13 -28 49 -28 17 0 55 11 85 24 30 13 80 34 110 47 94 39 125 64 160 125 27 48 30 61 21 80 -6 13 -18 24 -27 24 -12 0 -14 -3 -6 -13z"></path><path id="p12tQq7ZDv" d="M2032 795 c-18 -22 -30 -45 -28 -51 2 -6 -6 -16 -20 -23 -34 -15 -30 -31 10 -31 28 0 35 4 41 27 3 15 13 32 21 38 10 7 14 23 12 45 l-3 35 -33 -40z"></path><path id="pBMPctz9b" d="M1922 658 c-15 -15 -16 -58 -2 -58 6 0 10 5 10 10 0 6 12 22 26 35 l27 25 -25 0 c-13 0 -29 -5 -36 -12z"></path><path id="ptQ2I35i4" d="M1958 629 c-24 -13 -23 -29 2 -29 13 0 20 7 20 20 0 23 1 23 -22 9z"></path><path id="p12X5jXFxv" d="M1843 605 c-43 -18 -42 -35 2 -35 31 0 35 3 35 25 0 14 -1 25 -2 25 -2 -1 -18 -7 -35 -15z"></path><path id="p12I1U1mEF" d="M1733 524 c-23 -14 -52 -27 -64 -29 -42 -8 -89 -27 -89 -35 0 -5 -15 -12 -32 -16 -18 -4 -27 -9 -21 -11 7 -3 38 4 70 15 32 11 86 25 121 32 59 12 62 14 62 41 0 16 -1 29 -2 28 -2 -1 -22 -12 -45 -25z"></path><path id="p8ET1F2Wv" d="M1000 405 c0 -8 4 -15 9 -15 5 0 14 7 21 15 10 13 9 15 -9 15 -12 0 -21 -6 -21 -15z"></path></g></g><g id="l16DpGZwazCLdCbevcl3Ydx" fill="rgb(109,11,6)" style="transform: none;"><g style="transform: none;"><path id="p6PI61oUg" d="M1327 2240 c-97 -73 -177 -139 -177 -145 0 -7 8 -23 19 -36 l18 -23 74 69 c41 37 103 95 139 129 36 34 77 70 91 81 20 15 25 25 20 39 -6 16 -31 1 -184 -114z"></path><path id="p1CJxy9qTC" d="M1535 2133 c-26 -63 -13 -76 18 -17 21 42 24 54 12 54 -8 0 -22 -17 -30 -37z"></path><path id="p1CfetR4Q" d="M2213 2018 c-6 -7 -14 -24 -18 -37 -7 -21 -5 -23 16 -18 13 4 28 7 32 7 12 0 4 53 -9 57 -6 2 -16 -2 -21 -9z"></path><path id="pwJ33wELA" d="M687 1732 c-15 -16 -27 -33 -27 -39 0 -6 27 -16 59 -23 49 -10 60 -16 64 -35 3 -17 -3 -27 -20 -36 -24 -13 -37 -44 -31 -76 5 -26 58 -26 68 2 4 11 5 24 2 29 -3 5 0 6 6 2 7 -4 12 -2 12 3 0 6 7 11 15 11 8 0 15 7 15 15 0 13 3 13 20 3 17 -11 22 -10 30 2 9 13 11 13 20 0 7 -12 9 -10 7 9 -2 31 -46 49 -63 27 -17 -25 -25 -19 -23 17 5 67 0 85 -20 80 -16 -4 -49 7 -102 33 -3 2 -18 -9 -32 -24z"></path><path id="p1BUAcgPXF" d="M1832 1681 c-33 -46 -39 -61 -22 -61 6 0 10 -7 10 -15 0 -24 28 -17 50 13 11 15 19 31 18 35 -2 5 5 13 15 18 15 9 16 12 2 25 -8 8 -19 13 -24 10 -5 -4 -11 -1 -13 6 -3 7 -19 -7 -36 -31z"></path><path id="p13DRryZaJ" d="M2041 1684 c2 -5 15 -33 29 -62 24 -50 27 -52 57 -47 25 5 35 1 45 -15 16 -26 28 -26 28 1 0 11 5 17 10 14 6 -3 10 -31 10 -61 0 -40 4 -54 14 -54 8 0 20 -14 28 -30 7 -17 21 -33 31 -36 14 -4 17 -12 12 -31 -4 -18 -2 -24 7 -21 14 5 89 179 82 190 -3 5 0 8 5 8 20 0 11 34 -15 61 -25 26 -27 27 -61 12 -25 -10 -39 -11 -46 -4 -6 6 -30 11 -53 11 -35 0 -48 6 -71 30 -19 20 -42 31 -72 36 -25 4 -42 3 -40 -2z m260 -177 c-8 -8 -11 -7 -11 4 0 20 13 34 18 19 3 -7 -1 -17 -7 -23z"></path><path id="p19X8gjtBd" d="M936 1509 c-19 -19 -19 -19 2 -19 14 0 22 6 23 18 0 9 7 -5 14 -33 8 -27 24 -58 36 -67 52 -43 104 2 53 46 -14 11 -39 33 -56 49 -35 32 -46 33 -72 6z"></path><path id="pKoPcvL1x" d="M2140 1483 c0 -34 12 -63 26 -63 14 0 19 36 8 64 -8 22 -34 20 -34 -1z"></path><path id="pJqyALJDd" d="M617 1396 c-21 -20 -26 -33 -25 -70 0 -38 4 -46 20 -46 10 0 16 5 13 10 -6 10 31 72 47 78 4 2 8 10 8 18 0 8 7 14 15 14 8 0 15 5 15 10 0 20 -67 10 -93 -14z"></path><path id="pLsENRY1S" d="M1726 1290 c-44 -55 -88 -119 -98 -142 -10 -23 -17 -40 -15 -38 2 3 28 32 58 65 30 33 68 78 84 99 17 22 38 47 48 56 12 12 15 23 10 38 -7 19 -17 10 -87 -78z"></path><path id="p1CNcZp6NN" d="M2152 1333 c-6 -32 -14 -87 -17 -121 -7 -75 -34 -165 -73 -244 -27 -54 -27 -58 -11 -79 l16 -22 16 24 c8 13 20 42 27 64 7 22 19 46 28 53 9 7 11 12 4 12 -7 0 -12 7 -12 15 0 8 8 15 18 15 13 0 14 2 4 9 -11 7 -11 9 1 14 42 16 64 317 22 317 -7 0 -17 -23 -23 -57z"></path><path id="pYkBsigyf" d="M2286 1314 c-8 -21 -8 -24 4 -24 5 0 14 9 20 20 8 16 8 20 -4 20 -7 0 -17 -7 -20 -16z"></path><path id="p1Birbn0iW" d="M707 1218 c-20 -14 -25 -23 -17 -28 18 -11 71 12 68 29 -5 22 -21 22 -51 -1z"></path><path id="p2eQjWT65" d="M650 1171 c0 -5 7 -12 16 -15 23 -9 74 -7 74 2 0 4 -16 6 -36 4 -26 -3 -35 -1 -30 7 4 6 1 11 -8 11 -9 0 -16 -4 -16 -9z"></path><path id="ppH4rXB7N" d="M1222 1142 c-9 -15 -22 -30 -28 -35 -25 -15 -62 -95 -57 -121 7 -32 15 -33 47 -1 13 13 26 20 28 15 2 -5 22 15 46 45 44 58 53 77 25 54 -15 -13 -15 -12 -3 11 7 14 17 28 22 31 5 3 -8 10 -27 16 -33 11 -37 10 -53 -15z"></path><path id="prW8eRBBi" d="M1865 1116 c-15 -12 -35 -58 -35 -83 0 -13 4 -12 29 4 42 27 86 82 69 87 -21 7 -48 3 -63 -8z"></path><path id="p19hr2MzUV" d="M522 1085 c14 -32 62 -57 77 -42 8 8 11 8 11 0 0 -6 -7 -18 -15 -27 -25 -25 -19 -46 15 -46 22 0 30 -5 30 -18 0 -10 -4 -22 -10 -28 -13 -13 1 -30 33 -38 26 -6 27 -5 27 34 0 29 -4 40 -15 40 -10 0 -15 10 -15 30 0 20 -5 30 -15 30 -8 0 -17 11 -21 25 -8 33 -50 65 -85 65 -27 0 -28 -2 -17 -25z"></path><path id="pcq1MNZxC" d="M1909 968 c-12 -24 -15 -36 -7 -28 15 16 41 70 33 70 -3 0 -14 -19 -26 -42z"></path><path id="p4EnO4r5u" d="M1690 959 c-10 -17 -9 -23 1 -30 21 -13 34 -5 34 21 0 31 -21 37 -35 9z"></path><path id="p7L6dBU9s" d="M2112 903 c-57 -75 -110 -158 -106 -165 3 -4 -6 -12 -19 -17 -13 -5 -38 -27 -55 -48 -17 -22 -48 -48 -69 -58 -21 -11 -56 -36 -78 -56 -22 -21 -58 -49 -79 -63 -21 -14 -36 -26 -32 -26 4 0 63 14 133 32 98 24 127 35 131 50 3 13 14 18 36 18 31 0 32 1 99 165 37 90 70 171 73 180 10 25 -11 17 -34 -12z m-132 -253 c0 -6 -7 -13 -15 -16 -9 -4 -22 -18 -31 -33 l-15 -26 7 25 c10 38 54 78 54 50z"></path></g></g><g id="l74Jo1pgf9qpQzRAniJfy3L" fill="rgb(41,9,7)" style="transform: none;"><g style="transform: none;"><path id="psmLGZnWg" d="M1536 2121 c-9 -16 -16 -36 -16 -43 1 -7 10 4 21 25 11 22 18 41 15 44 -2 3 -12 -9 -20 -26z"></path><path id="pxIA6kG11" d="M2149 1793 c-9 -2 -21 -18 -27 -36 -5 -18 -10 -24 -11 -14 -2 26 -13 20 -44 -24 -23 -32 -27 -43 -17 -54 7 -8 21 -15 30 -15 10 0 27 -11 38 -25 23 -29 67 -48 94 -39 35 11 48 -12 41 -77 -4 -44 -3 -59 7 -59 8 0 10 8 7 21 -7 27 55 105 90 113 12 4 23 10 23 14 0 7 -144 142 -195 183 -11 8 -27 14 -36 12z"></path><path id="pJUSrhXlw" d="M657 1708 c-27 -19 -37 -48 -17 -48 18 0 -9 -40 -36 -52 -13 -6 -24 -20 -24 -31 0 -10 -9 -21 -20 -24 -11 -3 -23 -17 -26 -32 -11 -50 -15 -56 -47 -76 -48 -30 -49 -77 -3 -135 45 -57 45 -70 0 -70 -21 0 -33 -4 -29 -10 4 -6 11 -7 17 -4 8 5 9 1 5 -10 -12 -30 39 -128 79 -154 20 -12 40 -20 45 -17 5 4 6 -7 3 -25 -5 -24 -3 -30 10 -30 10 0 19 -11 22 -30 4 -16 11 -30 16 -30 6 0 8 -9 5 -19 -7 -27 19 -35 48 -13 14 9 25 20 25 24 0 4 13 23 30 41 27 31 37 35 90 39 33 2 65 9 72 16 8 8 3 9 -24 2 -19 -6 -46 -9 -61 -8 -21 2 -24 5 -16 20 5 10 14 18 19 18 15 0 12 19 -4 36 -8 7 -16 19 -18 26 -4 10 -8 10 -22 -1 -12 -10 -20 -11 -27 -4 -8 8 -1 13 23 18 18 3 41 9 52 12 33 9 -5 23 -47 17 -20 -3 -43 -2 -49 3 -7 4 -28 6 -46 4 -23 -2 -32 1 -28 8 4 6 0 11 -9 11 -10 0 -13 5 -9 12 5 8 2 9 -10 5 -10 -4 -28 -7 -40 -7 -20 0 -22 -4 -18 -27 4 -22 2 -25 -12 -20 -10 4 -22 7 -27 7 -5 0 -9 15 -9 34 0 19 -6 37 -12 39 -10 4 -10 6 -1 6 6 1 18 -8 26 -19 12 -17 17 -18 57 -6 24 7 46 18 48 24 2 7 -3 10 -11 6 -11 -4 -13 1 -10 19 3 14 0 28 -6 31 -22 14 -11 57 21 87 35 31 57 36 76 17 9 -9 12 -6 12 15 0 15 -3 27 -7 27 -5 0 -9 18 -10 39 -3 39 -2 39 32 37 30 -3 37 1 49 26 15 29 8 29 -26 0 -26 -22 -22 3 4 28 12 11 25 21 30 21 4 1 13 2 20 3 18 2 22 26 4 26 -19 0 -22 26 -3 33 7 3 5 6 -6 6 -9 1 -16 4 -16 9 4 23 -6 30 -58 42 -32 7 -60 16 -63 20 -3 5 -17 -1 -33 -12z m-7 -583 c0 -9 7 -18 15 -21 22 -9 18 -24 -5 -24 -11 0 -20 7 -20 15 0 8 -4 15 -10 15 -5 0 -10 7 -10 15 0 8 7 15 15 15 8 0 15 -7 15 -15z m64 -140 c-29 -22 -41 -18 -46 15 -4 25 -1 29 21 32 35 4 52 -27 25 -47z"></path><path id="p1EhEcZCUE" d="M890 1619 c0 -5 -4 -7 -10 -4 -5 3 -10 -1 -10 -9 0 -19 5 -20 31 -6 23 13 25 30 4 30 -8 0 -15 -5 -15 -11z"></path><path id="pTRUQHLjC" d="M835 1545 c-16 -14 -25 -25 -18 -25 7 0 25 11 40 25 36 32 17 32 -22 0z"></path><path id="p6l3Vnuob" d="M875 1538 c-11 -6 -30 -21 -43 -34 l-23 -24 30 0 c24 0 32 5 37 25 3 14 10 25 16 25 5 0 6 -4 3 -10 -3 -5 1 -10 9 -10 8 0 18 5 21 10 3 6 0 10 -9 10 -8 0 -16 4 -18 9 -2 6 -11 5 -23 -1z"></path><path id="poHlLH6xV" d="M926 1499 c-15 -12 -25 -23 -23 -26 8 -8 57 20 57 34 0 17 -3 17 -34 -8z"></path><path id="pc4iHZlzD" d="M955 1470 c-16 -18 -16 -20 -2 -20 10 0 17 8 18 18 1 11 4 8 8 -8 9 -30 3 -50 -14 -50 -7 0 -16 -11 -19 -25 -4 -14 -13 -25 -21 -25 -8 0 -15 -4 -15 -9 0 -5 10 -7 22 -3 14 3 19 2 14 -6 -4 -7 -12 -12 -17 -12 -13 0 -33 -21 -37 -38 -3 -16 25 -16 31 1 3 8 14 3 32 -16 28 -28 27 -42 -3 -42 -26 0 -20 -38 8 -52 14 -7 21 -13 15 -13 -5 0 5 -8 24 -17 26 -13 36 -14 39 -5 2 7 10 12 18 12 11 0 12 5 6 15 -4 9 -3 53 4 103 19 130 18 134 -17 155 -17 9 -33 26 -36 37 -7 26 -35 26 -58 0z m55 -259 c0 -14 -6 -17 -25 -13 -20 3 -23 7 -14 18 16 20 39 17 39 -5z"></path><path id="p1CQpjIFBG" d="M880 1425 c0 -8 7 -15 15 -15 8 0 15 7 15 15 0 8 -7 15 -15 15 -8 0 -15 -7 -15 -15z"></path><path id="p1H7o2szom" d="M771 1399 c-1 -28 15 -40 52 -38 16 1 14 3 -10 10 -21 6 -33 17 -36 32 -4 19 -4 19 -6 -4z"></path><path id="p1BqKqdmTB" d="M873 1363 c-18 -7 -16 -23 2 -23 8 0 15 7 15 15 0 8 -1 15 -2 14 -2 0 -9 -3 -15 -6z"></path><path id="p1GdOUTVhG" d="M790 1331 c0 -5 7 -11 15 -15 9 -3 15 0 15 9 0 8 -7 15 -15 15 -8 0 -15 -4 -15 -9z"></path><path id="pMEpXgHp8" d="M732 1318 c3 -7 13 -15 23 -17 17 -3 17 -2 3 13 -20 19 -31 21 -26 4z"></path><path id="pHOKZyYgy" d="M743 1273 c12 -8 8 -31 -8 -37 -22 -8 -18 -36 4 -36 11 0 23 5 26 10 3 6 14 10 24 10 24 0 46 26 31 35 -5 3 -13 -1 -16 -9 -8 -20 -30 -21 -37 -2 -4 10 -1 13 7 10 8 -3 16 -2 19 3 3 5 -2 9 -11 9 -9 1 -24 3 -32 6 -8 3 -12 3 -7 1z"></path><path id="pS6Qkp749" d="M842 1230 c-7 -11 -9 -20 -4 -20 10 0 32 22 32 32 0 15 -15 8 -28 -12z"></path><path id="pwp9BGrIo" d="M1224 1078 c-59 -68 -57 -65 -30 -70 16 -3 23 -1 20 7 -3 7 1 19 8 27 45 48 51 58 36 58 -8 0 -23 -10 -34 -22z"></path><path id="pC9NmLPQ8" d="M737 710 c-15 -15 -16 -20 -4 -41 7 -13 18 -25 25 -26 15 -4 16 14 1 19 -8 3 -7 13 4 34 18 35 4 42 -26 14z"></path><path id="pA7qdtGjQ" d="M1950 670 c0 -5 9 -10 20 -10 11 0 20 5 20 10 0 6 -9 10 -20 10 -11 0 -20 -4 -20 -10z"></path><path id="pDRcj4kfo" d="M1909 583 c-11 -36 -20 -48 -34 -48 -12 0 -19 6 -17 14 5 22 -18 43 -34 30 -7 -6 -11 -16 -8 -22 4 -11 -31 -38 -86 -64 -40 -19 -14 -15 129 21 74 19 138 40 142 48 15 23 10 33 -25 44 -31 9 -36 8 -45 -10 -9 -19 -10 -18 -5 7 10 44 -1 31 -17 -20z"></path><path id="pQs2aPEc9" d="M982 408 c-7 -7 -12 -20 -12 -30 0 -17 2 -17 30 4 17 12 30 25 30 30 0 12 -34 10 -48 -4z"></path><path id="psAiysLfP" d="M890 363 c0 -5 9 -23 20 -40 20 -33 43 -42 55 -23 3 6 0 10 -7 10 -8 0 -22 14 -31 30 -17 28 -37 40 -37 23z"></path></g></g><g id="l6O6M3V92F69aARHCoUbEYS" fill="rgb(22,19,15)" style="transform: none;"><g style="transform: none;"><path id="p158BC8IvM" d="M2115 1777 c-42 -42 -46 -72 -10 -81 33 -8 42 -2 50 34 4 17 13 30 21 30 20 0 17 14 -6 35 -19 17 -21 16 -55 -18z"></path><path id="pQwnmawih" d="M576 1636 c-50 -45 -77 -77 -74 -86 12 -33 -53 -110 -92 -110 -33 0 -30 -41 9 -129 21 -48 43 -85 49 -84 6 2 14 -6 17 -17 4 -11 11 -20 16 -20 6 0 7 -5 3 -11 -4 -8 -12 -3 -20 12 -18 33 -17 18 2 -30 14 -34 21 -40 55 -46 29 -5 39 -11 35 -21 -3 -8 1 -14 8 -14 15 0 26 -21 26 -50 0 -9 7 -23 15 -30 8 -7 15 -22 15 -34 0 -11 7 -30 15 -40 8 -10 12 -22 10 -27 -12 -19 18 -18 41 0 15 12 22 21 15 21 -20 0 -11 15 20 34 17 10 28 21 24 24 -3 3 6 11 20 16 l26 11 -50 47 c-28 25 -51 43 -51 39 0 -3 -9 -12 -20 -19 -17 -10 -23 -10 -35 2 -8 8 -15 19 -15 25 0 6 -4 11 -10 11 -5 0 -10 14 -10 31 0 20 -4 28 -12 23 -6 -4 -8 -3 -5 4 4 5 16 8 27 5 14 -4 20 0 20 11 0 8 -6 14 -12 12 -7 -3 -29 -7 -48 -9 l-35 -6 30 14 c17 8 24 14 18 15 -7 0 -13 6 -13 14 0 8 -9 21 -20 29 -11 8 -18 16 -15 19 3 3 -12 29 -35 59 -37 49 -38 54 -23 71 8 9 24 20 34 23 18 6 21 13 33 66 3 15 15 29 26 32 12 3 20 13 20 26 0 12 5 21 11 21 12 0 89 78 89 90 0 5 -10 15 -22 21 -13 7 -25 15 -28 20 -3 4 -41 -25 -84 -65z"></path><path id="pxob5dz2Z" d="M2252 1458 c2 -12 8 -23 14 -25 7 -2 10 6 7 22 -6 30 -26 34 -21 3z"></path><path id="pEUZKOTCb" d="M935 299 c-5 -7 5 -8 32 -3 51 9 54 14 10 14 -20 0 -39 -5 -42 -11z"></path></g></g><g id="l59tUQBM3OKe13KU711hlaQ" fill="rgb(9,7,4)" style="transform: none;"><g style="transform: none;"><path id="pj49exeMR" d="M2116 1779 c-50 -59 -25 -80 32 -28 27 24 31 33 22 45 -18 20 -25 18 -54 -17z"></path><path id="p11egY1qlO" d="M454 1529 c-38 -33 -72 -68 -75 -77 -8 -23 6 -69 47 -159 35 -77 53 -89 46 -31 -2 18 -4 41 -5 50 -1 9 -11 19 -23 22 -12 3 -24 12 -27 20 -10 25 4 56 25 56 11 0 36 17 55 38 74 79 74 79 44 118 l-19 24 -68 -61z"></path><path id="prLDSOOlw" d="M550 1208 c0 -4 14 -8 30 -8 17 0 30 2 30 4 0 2 -13 6 -30 8 -16 3 -30 1 -30 -4z"></path><path id="pKzwoE9Tm" d="M625 1190 c-19 -7 -19 -8 -2 -15 19 -8 31 -2 26 13 -2 5 -13 6 -24 2z"></path><path id="pGNeEE1uH" d="M550 1169 c0 -5 -5 -7 -11 -3 -7 4 -10 1 -7 -7 5 -16 59 -32 71 -20 14 14 -5 41 -29 41 -13 0 -24 -5 -24 -11z"></path></g></g></svg>